ISO-10303-21;
HEADER;
FILE_DESCRIPTION(('Open CASCADE Model'),'2;1');
FILE_NAME('Open CASCADE Shape Model','2025-12-11T17:33:10',('Author'),(
    'Open CASCADE'),'Open CASCADE STEP processor 7.8','Open CASCADE 7.8'
  ,'Unknown');
FILE_SCHEMA(('AUTOMOTIVE_DESIGN { 1 0 10303 214 1 1 1 1 }'));
ENDSEC;
DATA;
#1 = APPLICATION_PROTOCOL_DEFINITION('international standard',
  'automotive_design',2000,#2);
#2 = APPLICATION_CONTEXT(
  'core data for automotive mechanical design processes');
#3 = SHAPE_DEFINITION_REPRESENTATION(#4,#10);
#4 = PRODUCT_DEFINITION_SHAPE('','',#5);
#5 = PRODUCT_DEFINITION('design','',#6,#9);
#6 = PRODUCT_DEFINITION_FORMATION('','',#7);
#7 = PRODUCT('Open CASCADE STEP translator 7.8 5',
  'Open CASCADE STEP translator 7.8 5','',(#8));
#8 = PRODUCT_CONTEXT('',#2,'mechanical');
#9 = PRODUCT_DEFINITION_CONTEXT('part definition',#2,'design');
#10 = ADVANCED_BREP_SHAPE_REPRESENTATION('',(#11,#15),#831);
#11 = AXIS2_PLACEMENT_3D('',#12,#13,#14);
#12 = CARTESIAN_POINT('',(0.,0.,0.));
#13 = DIRECTION('',(0.,0.,1.));
#14 = DIRECTION('',(1.,0.,-0.));
#15 = MANIFOLD_SOLID_BREP('',#16);
#16 = CLOSED_SHELL('',(#17,#823,#827));
#17 = ADVANCED_FACE('',(#18),#118,.F.);
#18 = FACE_BOUND('',#19,.F.);
#19 = EDGE_LOOP('',(#20,#754,#788,#789));
#20 = ORIENTED_EDGE('',*,*,#21,.T.);
#21 = EDGE_CURVE('',#22,#24,#26,.T.);
#22 = VERTEX_POINT('',#23);
#23 = CARTESIAN_POINT('',(15.5,-1.880440247959E-14,0.));
#24 = VERTEX_POINT('',#25);
#25 = CARTESIAN_POINT('',(15.5,4.140170774269E-08,59.999999566442));
#26 = SEAM_CURVE('',#27,(#117,#747),.PCURVE_S1.);
#27 = ( BOUNDED_CURVE() B_SPLINE_CURVE(11,(#28,#29,#30,#31,#32,#33,#34,
    #35,#36,#37,#38,#39,#40,#41,#42,#43,#44,#45,#46,#47,#48,#49,#50,#51,
    #52,#53,#54,#55,#56,#57,#58,#59,#60,#61,#62,#63,#64,#65,#66,#67,#68,
    #69,#70,#71,#72,#73,#74,#75,#76,#77,#78,#79,#80,#81,#82,#83,#84,#85,
    #86,#87,#88,#89,#90,#91,#92,#93,#94,#95,#96,#97,#98,#99,#100,#101,
    #102,#103,#104,#105,#106,#107,#108,#109,#110,#111,#112,#113,#114,
#115,#116),.UNSPECIFIED.,.F.,.F.) B_SPLINE_CURVE_WITH_KNOTS((12,11,11,11
    ,11,11,11,11,12),(0.,9.784090024338,19.568180048677,29.352270073015,
    39.136360097353,48.920450121692,58.70454014603,68.488630170369,
78.272720194707),.PIECEWISE_BEZIER_KNOTS.) CURVE() 
GEOMETRIC_REPRESENTATION_ITEM() RATIONAL_B_SPLINE_CURVE((1.669078461068,
    1.669078461068,1.669078461069,1.669078461068,1.669078461069,
    1.669078461067,1.669078461069,1.669078461068,1.669078461069,
    1.669078461068,1.669078461068,1.669078461068,1.669078461068,
    1.669078461068,1.669078461068,1.669078461068,1.669078461068,
    1.669078461068,1.669078461068,1.669078461068,1.669078461068,
    1.669078461068,1.669078461068,1.669078461068,1.669078461068,
    1.669078461069,1.669078461067,1.66907846107,1.669078461066,
    1.66907846107,1.669078461067,1.669078461069,1.669078461068,
    1.669078461068,1.669078461068,1.669078461068,1.669078461068,
    1.669078461068,1.669078461069,1.669078461068,1.669078461068,
    1.669078461068,1.669078461068,1.669078461068,1.669078461068,
    1.669078461068,1.669078461068,1.669078461069,1.669078461068,
    1.669078461069,1.669078461067,1.669078461069,1.669078461068,
    1.669078461068,1.669078461068,1.669078461068,1.669078461068,
    1.669078461069,1.669078461066,1.669078461071,1.669078461064,
    1.669078461072,1.669078461066,1.66907846107,1.669078461068,
    1.669078461068,1.669078461068,1.669078461068,1.669078461067,
    1.66907846107,1.669078461065,1.669078461072,1.669078461065,
    1.669078461071,1.669078461067,1.669078461069,1.669078461068,
    1.669078461068,1.669078461068,1.669078461069,1.669078461067,
    1.66907846107,1.669078461067,1.66907846107,1.669078461067,
    1.669078461069,1.669078461068,1.669078461068,1.669078461068)) 
REPRESENTATION_ITEM('') );
#28 = CARTESIAN_POINT('',(15.5,-1.880440247959E-14,0.));
#29 = CARTESIAN_POINT('',(15.500000000003,8.853588788161,0.68181725316)
  );
#30 = CARTESIAN_POINT('',(9.938329939458,17.706904015352,1.363639017638)
  );
#31 = CARTESIAN_POINT('',(-1.19655837767,22.678966962383,2.045445533456)
  );
#32 = CARTESIAN_POINT('',(-14.79950251273,19.871821472095,2.727290810458
    ));
#33 = CARTESIAN_POINT('',(-24.94225800329,8.195714642081,3.40906450041)
  );
#34 = CARTESIAN_POINT('',(-24.9422579815,-8.195714708693,4.090935065974)
  );
#35 = CARTESIAN_POINT('',(-14.79950245956,-19.87182151168,4.772708755892
    ));
#36 = CARTESIAN_POINT('',(-1.196558317128,-22.67896696553,5.454554032939
    ));
#37 = CARTESIAN_POINT('',(9.938329986782,-17.70690398881,6.136360548722)
  );
#38 = CARTESIAN_POINT('',(15.500000023652,-8.853588746747,6.818182313218
    ));
#39 = CARTESIAN_POINT('',(15.5,4.140947051923E-08,7.499999566372));
#40 = CARTESIAN_POINT('',(15.499999999999,8.853588704517,8.181818129038)
  );
#41 = CARTESIAN_POINT('',(9.938329939474,17.706904151102,8.863637596184)
  );
#42 = CARTESIAN_POINT('',(-1.196558377706,22.678966781093,9.545447431699
    ));
#43 = CARTESIAN_POINT('',(-14.79950251267,19.871821673582,
    10.227288700686));
#44 = CARTESIAN_POINT('',(-24.94225800336,8.195714455214,10.909066457336
    ));
#45 = CARTESIAN_POINT('',(-24.94225798144,-8.19571456482,11.590933558958
    ));
#46 = CARTESIAN_POINT('',(-14.7995024596,-19.87182160227,12.272709705059
    ));
#47 = CARTESIAN_POINT('',(-1.196558317106,-22.67896692032,
    12.954553559085));
#48 = CARTESIAN_POINT('',(9.938329986775,-17.70690400553,13.636360723918
    ));
#49 = CARTESIAN_POINT('',(15.500000023654,-8.853588742987,
    14.318182273789));
#50 = CARTESIAN_POINT('',(15.5,4.140901724292E-08,14.999999566374));
#51 = CARTESIAN_POINT('',(15.499999999997,8.853588704515,15.681818129028
    ));
#52 = CARTESIAN_POINT('',(9.938329939485,17.706904151116,16.363637596215
    ));
#53 = CARTESIAN_POINT('',(-1.196558377736,22.678966781058,
    17.045447431625));
#54 = CARTESIAN_POINT('',(-14.79950251262,19.871821673636,
    17.727288700815));
#55 = CARTESIAN_POINT('',(-24.94225800342,8.195714455166,18.409066457163
    ));
#56 = CARTESIAN_POINT('',(-24.94225798137,-8.195714564808,
    19.090933559138));
#57 = CARTESIAN_POINT('',(-14.79950245966,-19.87182160225,
    19.772709704911));
#58 = CARTESIAN_POINT('',(-1.196558317065,-22.67896692034,
    20.454553559185));
#59 = CARTESIAN_POINT('',(9.938329986756,-17.70690400551,21.136360723862
    ));
#60 = CARTESIAN_POINT('',(15.500000023658,-8.853588742993,
    21.818182273816));
#61 = CARTESIAN_POINT('',(15.5,4.141118346845E-08,22.499999566363));
#62 = CARTESIAN_POINT('',(15.499999999997,8.853588704516,23.181818129016
    ));
#63 = CARTESIAN_POINT('',(9.938329939482,17.706904151099,23.863637596276
    ));
#64 = CARTESIAN_POINT('',(-1.196558377729,22.678966781104,24.54544743151
    ));
#65 = CARTESIAN_POINT('',(-14.79950251262,19.871821673557,25.22728870096
    ));
#66 = CARTESIAN_POINT('',(-24.94225800343,8.195714455258,25.909066457023
    ));
#67 = CARTESIAN_POINT('',(-24.94225798136,-8.195714564882,
    26.590933559254));
#68 = CARTESIAN_POINT('',(-14.79950245967,-19.8718216022,27.272709704822
    ));
#69 = CARTESIAN_POINT('',(-1.196558317066,-22.67896692037,
    27.954553559248));
#70 = CARTESIAN_POINT('',(9.938329986759,-17.7069040055,28.636360723822)
  );
#71 = CARTESIAN_POINT('',(15.500000023657,-8.853588742996,
    29.318182273836));
#72 = CARTESIAN_POINT('',(15.5,4.14117703601E-08,29.999999566355));
#73 = CARTESIAN_POINT('',(15.499999999998,8.853588700752,30.681818168431
    ));
#74 = CARTESIAN_POINT('',(9.938329939479,17.706904167827,31.363637421145
    ));
#75 = CARTESIAN_POINT('',(-1.196558377726,22.67896673586,32.04544790523)
  );
#76 = CARTESIAN_POINT('',(-14.79950251262,19.871821764181,
    32.727287751968));
#77 = CARTESIAN_POINT('',(-24.94225800345,8.195714311378,33.40906796389)
  );
#78 = CARTESIAN_POINT('',(-24.94225798132,-8.195714378052,
    34.090931602387));
#79 = CARTESIAN_POINT('',(-14.79950245971,-19.87182180363,34.77271181464
    ));
#80 = CARTESIAN_POINT('',(-1.196558317036,-22.67896673912,
    35.454551660883));
#81 = CARTESIAN_POINT('',(9.938329986746,-17.70690414124,36.136362145424
    ));
#82 = CARTESIAN_POINT('',(15.50000002366,-8.853588659347,36.818181397833
    ));
#83 = CARTESIAN_POINT('',(15.5,-4.108491324928E-12,37.500000000064));
#84 = CARTESIAN_POINT('',(15.500000000002,8.853588788173,38.181817252943
    ));
#85 = CARTESIAN_POINT('',(9.93832993947,17.706904015323,38.863639018139)
  );
#86 = CARTESIAN_POINT('',(-1.196558377721,22.678966962447,
    39.545445532582));
#87 = CARTESIAN_POINT('',(-14.79950251259,19.871821471975,
    40.227290811672));
#88 = CARTESIAN_POINT('',(-24.94225800352,8.195714642254,40.909064499022
    ));
#89 = CARTESIAN_POINT('',(-24.94225798124,-8.195714708892,
    41.590935067308));
#90 = CARTESIAN_POINT('',(-14.79950245975,-19.87182151149,
    42.272708754801));
#91 = CARTESIAN_POINT('',(-1.196558317027,-22.67896696568,
    42.954554033695));
#92 = CARTESIAN_POINT('',(9.938329986746,-17.70690398873,43.636360548288
    ));
#93 = CARTESIAN_POINT('',(15.500000023659,-8.853588746779,
    44.318182313417));
#94 = CARTESIAN_POINT('',(15.5,4.141742618313E-08,44.999999566304));
#95 = CARTESIAN_POINT('',(15.499999999997,8.85358870075,45.681818168447)
  );
#96 = CARTESIAN_POINT('',(9.93832993948,17.706904167812,46.363637421271)
  );
#97 = CARTESIAN_POINT('',(-1.196558377715,22.678966735906,
    47.045447904835));
#98 = CARTESIAN_POINT('',(-14.79950251265,19.871821764082,
    47.727287752717));
#99 = CARTESIAN_POINT('',(-24.94225800341,8.195714311544,48.409067962813
    ));
#100 = CARTESIAN_POINT('',(-24.94225798134,-8.195714378261,
    49.090931603643));
#101 = CARTESIAN_POINT('',(-14.79950245972,-19.87182180345,
    49.772711813427));
#102 = CARTESIAN_POINT('',(-1.196558317021,-22.67896673925,
    50.454551661855));
#103 = CARTESIAN_POINT('',(9.93832998674,-17.70690414117,51.136362144787
    ));
#104 = CARTESIAN_POINT('',(15.500000023659,-8.853588659377,
    51.818181398166));
#105 = CARTESIAN_POINT('',(15.500000000001,5.866293562029E-12,
    52.499999999932));
#106 = CARTESIAN_POINT('',(15.499999999999,8.853588788137,
    53.181817253447));
#107 = CARTESIAN_POINT('',(9.938329939472,17.706904015413,
    53.863639016926));
#108 = CARTESIAN_POINT('',(-1.196558377698,22.678966962262,
    54.545445534748));
#109 = CARTESIAN_POINT('',(-14.7995025127,19.871821472291,
    55.227290808619));
#110 = CARTESIAN_POINT('',(-24.94225800329,8.195714641821,
    55.909064502531));
#111 = CARTESIAN_POINT('',(-24.94225798155,-8.195714708417,
    56.590935063949));
#112 = CARTESIAN_POINT('',(-14.79950245948,-19.8718215119,
    57.272708757504));
#113 = CARTESIAN_POINT('',(-1.196558317186,-22.67896696539,
    57.954554031876));
#114 = CARTESIAN_POINT('',(9.938329986809,-17.70690398889,
    58.636360549292));
#115 = CARTESIAN_POINT('',(15.500000023646,-8.853588746719,
    59.31818231298));
#116 = CARTESIAN_POINT('',(15.5,4.140170774269E-08,59.999999566442));
#117 = PCURVE('',#118,#742);
#118 = ( BOUNDED_SURFACE() B_SPLINE_SURFACE(6,11,(
    (#119,#120,#121,#122,#123,#124,#125,#126,#127,#128,#129,#130,#131
      ,#132,#133,#134,#135,#136,#137,#138,#139,#140,#141,#142,#143,#144
      ,#145,#146,#147,#148,#149,#150,#151,#152,#153,#154,#155,#156,#157
      ,#158,#159,#160,#161,#162,#163,#164,#165,#166,#167,#168,#169,#170
      ,#171,#172,#173,#174,#175,#176,#177,#178,#179,#180,#181,#182,#183
      ,#184,#185,#186,#187,#188,#189,#190,#191,#192,#193,#194,#195,#196
      ,#197,#198,#199,#200,#201,#202,#203,#204,#205,#206,#207)
    ,(#208,#209,#210,#211,#212,#213,#214,#215,#216,#217,#218,#219,#220
      ,#221,#222,#223,#224,#225,#226,#227,#228,#229,#230,#231,#232,#233
      ,#234,#235,#236,#237,#238,#239,#240,#241,#242,#243,#244,#245,#246
      ,#247,#248,#249,#250,#251,#252,#253,#254,#255,#256,#257,#258,#259
      ,#260,#261,#262,#263,#264,#265,#266,#267,#268,#269,#270,#271,#272
      ,#273,#274,#275,#276,#277,#278,#279,#280,#281,#282,#283,#284,#285
      ,#286,#287,#288,#289,#290,#291,#292,#293,#294,#295,#296)
    ,(#297,#298,#299,#300,#301,#302,#303,#304,#305,#306,#307,#308,#309
      ,#310,#311,#312,#313,#314,#315,#316,#317,#318,#319,#320,#321,#322
      ,#323,#324,#325,#326,#327,#328,#329,#330,#331,#332,#333,#334,#335
      ,#336,#337,#338,#339,#340,#341,#342,#343,#344,#345,#346,#347,#348
      ,#349,#350,#351,#352,#353,#354,#355,#356,#357,#358,#359,#360,#361
      ,#362,#363,#364,#365,#366,#367,#368,#369,#370,#371,#372,#373,#374
      ,#375,#376,#377,#378,#379,#380,#381,#382,#383,#384,#385)
    ,(#386,#387,#388,#389,#390,#391,#392,#393,#394,#395,#396,#397,#398
      ,#399,#400,#401,#402,#403,#404,#405,#406,#407,#408,#409,#410,#411
      ,#412,#413,#414,#415,#416,#417,#418,#419,#420,#421,#422,#423,#424
      ,#425,#426,#427,#428,#429,#430,#431,#432,#433,#434,#435,#436,#437
      ,#438,#439,#440,#441,#442,#443,#444,#445,#446,#447,#448,#449,#450
      ,#451,#452,#453,#454,#455,#456,#457,#458,#459,#460,#461,#462,#463
      ,#464,#465,#466,#467,#468,#469,#470,#471,#472,#473,#474)
    ,(#475,#476,#477,#478,#479,#480,#481,#482,#483,#484,#485,#486,#487
      ,#488,#489,#490,#491,#492,#493,#494,#495,#496,#497,#498,#499,#500
      ,#501,#502,#503,#504,#505,#506,#507,#508,#509,#510,#511,#512,#513
      ,#514,#515,#516,#517,#518,#519,#520,#521,#522,#523,#524,#525,#526
      ,#527,#528,#529,#530,#531,#532,#533,#534,#535,#536,#537,#538,#539
      ,#540,#541,#542,#543,#544,#545,#546,#547,#548,#549,#550,#551,#552
      ,#553,#554,#555,#556,#557,#558,#559,#560,#561,#562,#563)
    ,(#564,#565,#566,#567,#568,#569,#570,#571,#572,#573,#574,#575,#576
      ,#577,#578,#579,#580,#581,#582,#583,#584,#585,#586,#587,#588,#589
      ,#590,#591,#592,#593,#594,#595,#596,#597,#598,#599,#600,#601,#602
      ,#603,#604,#605,#606,#607,#608,#609,#610,#611,#612,#613,#614,#615
      ,#616,#617,#618,#619,#620,#621,#622,#623,#624,#625,#626,#627,#628
      ,#629,#630,#631,#632,#633,#634,#635,#636,#637,#638,#639,#640,#641
      ,#642,#643,#644,#645,#646,#647,#648,#649,#650,#651,#652)
    ,(#653,#654,#655,#656,#657,#658,#659,#660,#661,#662,#663,#664,#665
      ,#666,#667,#668,#669,#670,#671,#672,#673,#674,#675,#676,#677,#678
      ,#679,#680,#681,#682,#683,#684,#685,#686,#687,#688,#689,#690,#691
      ,#692,#693,#694,#695,#696,#697,#698,#699,#700,#701,#702,#703,#704
      ,#705,#706,#707,#708,#709,#710,#711,#712,#713,#714,#715,#716,#717
      ,#718,#719,#720,#721,#722,#723,#724,#725,#726,#727,#728,#729,#730
      ,#731,#732,#733,#734,#735,#736,#737,#738,#739,#740,#741
)),.UNSPECIFIED.,.T.,.F.,.F.) B_SPLINE_SURFACE_WITH_KNOTS((1,6,6,1),(12,
    11,11,11,11,11,11,11,12),(-6.28318530718,0.,6.28318530718,
    12.566370614359),(0.,9.784090024338,19.568180048677,29.352270073015,
    39.136360097353,48.920450121692,58.70454014603,68.488630170369,
78.272720194707),.UNSPECIFIED.) GEOMETRIC_REPRESENTATION_ITEM() 
RATIONAL_B_SPLINE_SURFACE((
    (1.669078461068,1.669078461068,1.669078461069,1.669078461068
      ,1.669078461069,1.669078461067,1.669078461069,1.669078461068
      ,1.669078461069,1.669078461068,1.669078461068,1.669078461068
      ,1.669078461068,1.669078461068,1.669078461068,1.669078461068
      ,1.669078461068,1.669078461068,1.669078461068,1.669078461068
      ,1.669078461068,1.669078461068,1.669078461068,1.669078461068
      ,1.669078461068,1.669078461069,1.669078461067,1.66907846107
      ,1.669078461066,1.66907846107,1.669078461067,1.669078461069
      ,1.669078461068,1.669078461068,1.669078461068,1.669078461068
      ,1.669078461068,1.669078461068,1.669078461069,1.669078461068
      ,1.669078461068,1.669078461068,1.669078461068,1.669078461068
      ,1.669078461068,1.669078461068,1.669078461068,1.669078461069
      ,1.669078461068,1.669078461069,1.669078461067,1.669078461069
      ,1.669078461068,1.669078461068,1.669078461068,1.669078461068
      ,1.669078461068,1.669078461069,1.669078461066,1.669078461071
      ,1.669078461064,1.669078461072,1.669078461066,1.66907846107
      ,1.669078461068,1.669078461068,1.669078461068,1.669078461068
      ,1.669078461067,1.66907846107,1.669078461065,1.669078461072
      ,1.669078461065,1.669078461071,1.669078461067,1.669078461069
      ,1.669078461068,1.669078461068,1.669078461068,1.669078461069
      ,1.669078461067,1.66907846107,1.669078461067,1.66907846107
      ,1.669078461067,1.669078461069,1.669078461068,1.669078461068
      ,1.669078461068)
    ,(1.03672962321,1.03672962321,1.03672962321,1.036729623209
      ,1.03672962321,1.036729623209,1.03672962321,1.036729623209
      ,1.03672962321,1.03672962321,1.03672962321,1.03672962321
      ,1.03672962321,1.03672962321,1.03672962321,1.036729623209
      ,1.03672962321,1.03672962321,1.03672962321,1.03672962321
      ,1.03672962321,1.03672962321,1.03672962321,1.03672962321
      ,1.036729623209,1.03672962321,1.036729623209,1.036729623211
      ,1.036729623208,1.036729623211,1.036729623209,1.03672962321
      ,1.03672962321,1.03672962321,1.03672962321,1.03672962321
      ,1.03672962321,1.036729623209,1.03672962321,1.036729623209
      ,1.03672962321,1.036729623209,1.03672962321,1.03672962321
      ,1.03672962321,1.03672962321,1.03672962321,1.03672962321
      ,1.036729623209,1.03672962321,1.036729623209,1.03672962321
      ,1.03672962321,1.03672962321,1.03672962321,1.03672962321
      ,1.03672962321,1.03672962321,1.036729623209,1.036729623211
      ,1.036729623207,1.036729623212,1.036729623208,1.03672962321
      ,1.036729623209,1.03672962321,1.03672962321,1.03672962321
      ,1.036729623209,1.036729623211,1.036729623207,1.036729623212
      ,1.036729623207,1.036729623211,1.036729623209,1.03672962321
      ,1.03672962321,1.03672962321,1.03672962321,1.03672962321
      ,1.036729623209,1.036729623211,1.036729623208,1.036729623211
      ,1.036729623208,1.03672962321,1.036729623209,1.03672962321
      ,1.03672962321)
    ,(1.038346699848,1.038346699847,1.038346699848,1.038346699847
      ,1.038346699848,1.038346699847,1.038346699848,1.038346699847
      ,1.038346699848,1.038346699847,1.038346699848,1.038346699848
      ,1.038346699848,1.038346699847,1.038346699848,1.038346699847
      ,1.038346699848,1.038346699847,1.038346699848,1.038346699847
      ,1.038346699848,1.038346699848,1.038346699848,1.038346699848
      ,1.038346699847,1.038346699848,1.038346699846,1.038346699849
      ,1.038346699846,1.038346699849,1.038346699847,1.038346699848
      ,1.038346699847,1.038346699848,1.038346699848,1.038346699847
      ,1.038346699848,1.038346699847,1.038346699848,1.038346699847
      ,1.038346699848,1.038346699847,1.038346699848,1.038346699848
      ,1.038346699848,1.038346699848,1.038346699847,1.038346699848
      ,1.038346699847,1.038346699848,1.038346699847,1.038346699848
      ,1.038346699847,1.038346699848,1.038346699848,1.038346699848
      ,1.038346699847,1.038346699848,1.038346699847,1.038346699849
      ,1.038346699845,1.03834669985,1.038346699846,1.038346699848
      ,1.038346699847,1.038346699848,1.038346699848,1.038346699848
      ,1.038346699847,1.038346699849,1.038346699846,1.03834669985
      ,1.038346699846,1.038346699849,1.038346699847,1.038346699848
      ,1.038346699847,1.038346699848,1.038346699847,1.038346699848
      ,1.038346699847,1.038346699849,1.038346699846,1.038346699849
      ,1.038346699847,1.038346699848,1.038346699847,1.038346699848
      ,1.038346699848)
    ,(0.853534330196,0.853534330196,0.853534330196,0.853534330196
      ,0.853534330197,0.853534330196,0.853534330197,0.853534330196
      ,0.853534330196,0.853534330196,0.853534330196,0.853534330196
      ,0.853534330196,0.853534330196,0.853534330196,0.853534330196
      ,0.853534330196,0.853534330196,0.853534330196,0.853534330196
      ,0.853534330196,0.853534330196,0.853534330196,0.853534330196
      ,0.853534330196,0.853534330196,0.853534330195,0.853534330197
      ,0.853534330195,0.853534330197,0.853534330196,0.853534330196
      ,0.853534330196,0.853534330196,0.853534330196,0.853534330196
      ,0.853534330197,0.853534330196,0.853534330197,0.853534330195
      ,0.853534330197,0.853534330196,0.853534330196,0.853534330196
      ,0.853534330196,0.853534330196,0.853534330196,0.853534330196
      ,0.853534330196,0.853534330197,0.853534330196,0.853534330196
      ,0.853534330196,0.853534330196,0.853534330196,0.853534330196
      ,0.853534330196,0.853534330196,0.853534330196,0.853534330197
      ,0.853534330195,0.853534330197,0.853534330195,0.853534330197
      ,0.853534330196,0.853534330196,0.853534330196,0.853534330196
      ,0.853534330196,0.853534330197,0.853534330194,0.853534330198
      ,0.853534330194,0.853534330198,0.853534330195,0.853534330196
      ,0.853534330196,0.853534330196,0.853534330196,0.853534330196
      ,0.853534330196,0.853534330197,0.853534330195,0.853534330197
      ,0.853534330196,0.853534330196,0.853534330196,0.853534330196
      ,0.853534330196)
    ,(1.038346699848,1.038346699847,1.038346699848,1.038346699847
      ,1.038346699848,1.038346699847,1.038346699848,1.038346699847
      ,1.038346699848,1.038346699847,1.038346699848,1.038346699848
      ,1.038346699848,1.038346699847,1.038346699848,1.038346699847
      ,1.038346699848,1.038346699847,1.038346699848,1.038346699847
      ,1.038346699848,1.038346699848,1.038346699848,1.038346699848
      ,1.038346699847,1.038346699848,1.038346699846,1.038346699849
      ,1.038346699846,1.038346699849,1.038346699847,1.038346699848
      ,1.038346699847,1.038346699848,1.038346699848,1.038346699847
      ,1.038346699848,1.038346699847,1.038346699848,1.038346699847
      ,1.038346699847,1.038346699848,1.038346699847,1.038346699848
      ,1.038346699848,1.038346699848,1.038346699847,1.038346699848
      ,1.038346699847,1.038346699848,1.038346699847,1.038346699848
      ,1.038346699847,1.038346699848,1.038346699848,1.038346699848
      ,1.038346699847,1.038346699848,1.038346699847,1.038346699849
      ,1.038346699845,1.03834669985,1.038346699846,1.038346699848
      ,1.038346699847,1.038346699848,1.038346699848,1.038346699848
      ,1.038346699847,1.038346699849,1.038346699845,1.03834669985
      ,1.038346699845,1.038346699849,1.038346699847,1.038346699848
      ,1.038346699847,1.038346699848,1.038346699847,1.038346699848
      ,1.038346699847,1.038346699849,1.038346699846,1.038346699849
      ,1.038346699846,1.038346699848,1.038346699847,1.038346699848
      ,1.038346699848)
    ,(1.03672962321,1.03672962321,1.03672962321,1.036729623209
      ,1.03672962321,1.036729623209,1.03672962321,1.036729623209
      ,1.03672962321,1.03672962321,1.03672962321,1.03672962321
      ,1.03672962321,1.036729623209,1.03672962321,1.036729623209
      ,1.03672962321,1.036729623209,1.03672962321,1.03672962321
      ,1.03672962321,1.03672962321,1.03672962321,1.03672962321
      ,1.036729623209,1.03672962321,1.036729623209,1.036729623211
      ,1.036729623209,1.03672962321,1.036729623209,1.03672962321
      ,1.03672962321,1.03672962321,1.03672962321,1.03672962321
      ,1.03672962321,1.036729623209,1.03672962321,1.036729623209
      ,1.03672962321,1.036729623209,1.03672962321,1.03672962321
      ,1.03672962321,1.03672962321,1.03672962321,1.03672962321
      ,1.03672962321,1.036729623209,1.03672962321,1.036729623209
      ,1.03672962321,1.03672962321,1.03672962321,1.03672962321
      ,1.03672962321,1.03672962321,1.036729623209,1.036729623211
      ,1.036729623208,1.036729623212,1.036729623208,1.03672962321
      ,1.036729623209,1.03672962321,1.03672962321,1.03672962321
      ,1.036729623209,1.036729623211,1.036729623207,1.036729623212
      ,1.036729623207,1.036729623211,1.036729623209,1.03672962321
      ,1.03672962321,1.03672962321,1.03672962321,1.03672962321
      ,1.036729623209,1.036729623211,1.036729623208,1.036729623211
      ,1.036729623209,1.03672962321,1.036729623209,1.03672962321
      ,1.03672962321)
    ,(1.669078461068,1.669078461068,1.669078461069,1.669078461068
      ,1.669078461069,1.669078461067,1.669078461069,1.669078461068
      ,1.669078461069,1.669078461068,1.669078461068,1.669078461068
      ,1.669078461068,1.669078461068,1.669078461068,1.669078461068
      ,1.669078461068,1.669078461068,1.669078461068,1.669078461068
      ,1.669078461068,1.669078461068,1.669078461068,1.669078461068
      ,1.669078461068,1.669078461069,1.669078461067,1.66907846107
      ,1.669078461066,1.66907846107,1.669078461067,1.669078461069
      ,1.669078461068,1.669078461068,1.669078461068,1.669078461068
      ,1.669078461068,1.669078461068,1.669078461069,1.669078461068
      ,1.669078461068,1.669078461068,1.669078461068,1.669078461068
      ,1.669078461068,1.669078461068,1.669078461068,1.669078461069
      ,1.669078461068,1.669078461069,1.669078461067,1.669078461069
      ,1.669078461068,1.669078461068,1.669078461068,1.669078461068
      ,1.669078461068,1.669078461069,1.669078461066,1.669078461071
      ,1.669078461064,1.669078461072,1.669078461066,1.66907846107
      ,1.669078461068,1.669078461068,1.669078461068,1.669078461068
      ,1.669078461067,1.66907846107,1.669078461065,1.669078461072
      ,1.669078461065,1.669078461071,1.669078461067,1.669078461069
      ,1.669078461068,1.669078461068,1.669078461068,1.669078461069
      ,1.669078461067,1.66907846107,1.669078461067,1.66907846107
      ,1.669078461067,1.669078461069,1.669078461068,1.669078461068
,1.669078461068))) REPRESENTATION_ITEM('') SURFACE() );
#119 = CARTESIAN_POINT('',(15.5,-1.880440247959E-14,0.));
#120 = CARTESIAN_POINT('',(15.500000000003,8.853588788161,0.68181725316)
  );
#121 = CARTESIAN_POINT('',(9.938329939458,17.706904015352,1.363639017638
    ));
#122 = CARTESIAN_POINT('',(-1.19655837767,22.678966962383,2.045445533456
    ));
#123 = CARTESIAN_POINT('',(-14.79950251273,19.871821472095,
    2.727290810458));
#124 = CARTESIAN_POINT('',(-24.94225800329,8.195714642081,3.40906450041)
  );
#125 = CARTESIAN_POINT('',(-24.9422579815,-8.195714708693,4.090935065974
    ));
#126 = CARTESIAN_POINT('',(-14.79950245956,-19.87182151168,
    4.772708755892));
#127 = CARTESIAN_POINT('',(-1.196558317128,-22.67896696553,
    5.454554032939));
#128 = CARTESIAN_POINT('',(9.938329986782,-17.70690398881,6.136360548722
    ));
#129 = CARTESIAN_POINT('',(15.500000023652,-8.853588746747,
    6.818182313218));
#130 = CARTESIAN_POINT('',(15.5,4.140947051923E-08,7.499999566372));
#131 = CARTESIAN_POINT('',(15.499999999999,8.853588704517,8.181818129038
    ));
#132 = CARTESIAN_POINT('',(9.938329939474,17.706904151102,8.863637596184
    ));
#133 = CARTESIAN_POINT('',(-1.196558377706,22.678966781093,
    9.545447431699));
#134 = CARTESIAN_POINT('',(-14.79950251267,19.871821673582,
    10.227288700686));
#135 = CARTESIAN_POINT('',(-24.94225800336,8.195714455214,
    10.909066457336));
#136 = CARTESIAN_POINT('',(-24.94225798144,-8.19571456482,
    11.590933558958));
#137 = CARTESIAN_POINT('',(-14.7995024596,-19.87182160227,
    12.272709705059));
#138 = CARTESIAN_POINT('',(-1.196558317106,-22.67896692032,
    12.954553559085));
#139 = CARTESIAN_POINT('',(9.938329986775,-17.70690400553,
    13.636360723918));
#140 = CARTESIAN_POINT('',(15.500000023654,-8.853588742987,
    14.318182273789));
#141 = CARTESIAN_POINT('',(15.5,4.140901724292E-08,14.999999566374));
#142 = CARTESIAN_POINT('',(15.499999999997,8.853588704515,
    15.681818129028));
#143 = CARTESIAN_POINT('',(9.938329939485,17.706904151116,
    16.363637596215));
#144 = CARTESIAN_POINT('',(-1.196558377736,22.678966781058,
    17.045447431625));
#145 = CARTESIAN_POINT('',(-14.79950251262,19.871821673636,
    17.727288700815));
#146 = CARTESIAN_POINT('',(-24.94225800342,8.195714455166,
    18.409066457163));
#147 = CARTESIAN_POINT('',(-24.94225798137,-8.195714564808,
    19.090933559138));
#148 = CARTESIAN_POINT('',(-14.79950245966,-19.87182160225,
    19.772709704911));
#149 = CARTESIAN_POINT('',(-1.196558317065,-22.67896692034,
    20.454553559185));
#150 = CARTESIAN_POINT('',(9.938329986756,-17.70690400551,
    21.136360723862));
#151 = CARTESIAN_POINT('',(15.500000023658,-8.853588742993,
    21.818182273816));
#152 = CARTESIAN_POINT('',(15.5,4.141118346845E-08,22.499999566363));
#153 = CARTESIAN_POINT('',(15.499999999997,8.853588704516,
    23.181818129016));
#154 = CARTESIAN_POINT('',(9.938329939482,17.706904151099,
    23.863637596276));
#155 = CARTESIAN_POINT('',(-1.196558377729,22.678966781104,
    24.54544743151));
#156 = CARTESIAN_POINT('',(-14.79950251262,19.871821673557,
    25.22728870096));
#157 = CARTESIAN_POINT('',(-24.94225800343,8.195714455258,
    25.909066457023));
#158 = CARTESIAN_POINT('',(-24.94225798136,-8.195714564882,
    26.590933559254));
#159 = CARTESIAN_POINT('',(-14.79950245967,-19.8718216022,
    27.272709704822));
#160 = CARTESIAN_POINT('',(-1.196558317066,-22.67896692037,
    27.954553559248));
#161 = CARTESIAN_POINT('',(9.938329986759,-17.7069040055,28.636360723822
    ));
#162 = CARTESIAN_POINT('',(15.500000023657,-8.853588742996,
    29.318182273836));
#163 = CARTESIAN_POINT('',(15.5,4.14117703601E-08,29.999999566355));
#164 = CARTESIAN_POINT('',(15.499999999998,8.853588700752,
    30.681818168431));
#165 = CARTESIAN_POINT('',(9.938329939479,17.706904167827,
    31.363637421145));
#166 = CARTESIAN_POINT('',(-1.196558377726,22.67896673586,32.04544790523
    ));
#167 = CARTESIAN_POINT('',(-14.79950251262,19.871821764181,
    32.727287751968));
#168 = CARTESIAN_POINT('',(-24.94225800345,8.195714311378,33.40906796389
    ));
#169 = CARTESIAN_POINT('',(-24.94225798132,-8.195714378052,
    34.090931602387));
#170 = CARTESIAN_POINT('',(-14.79950245971,-19.87182180363,
    34.77271181464));
#171 = CARTESIAN_POINT('',(-1.196558317036,-22.67896673912,
    35.454551660883));
#172 = CARTESIAN_POINT('',(9.938329986746,-17.70690414124,
    36.136362145424));
#173 = CARTESIAN_POINT('',(15.50000002366,-8.853588659347,
    36.818181397833));
#174 = CARTESIAN_POINT('',(15.5,-4.108491324928E-12,37.500000000064));
#175 = CARTESIAN_POINT('',(15.500000000002,8.853588788173,
    38.181817252943));
#176 = CARTESIAN_POINT('',(9.93832993947,17.706904015323,38.863639018139
    ));
#177 = CARTESIAN_POINT('',(-1.196558377721,22.678966962447,
    39.545445532582));
#178 = CARTESIAN_POINT('',(-14.79950251259,19.871821471975,
    40.227290811672));
#179 = CARTESIAN_POINT('',(-24.94225800352,8.195714642254,
    40.909064499022));
#180 = CARTESIAN_POINT('',(-24.94225798124,-8.195714708892,
    41.590935067308));
#181 = CARTESIAN_POINT('',(-14.79950245975,-19.87182151149,
    42.272708754801));
#182 = CARTESIAN_POINT('',(-1.196558317027,-22.67896696568,
    42.954554033695));
#183 = CARTESIAN_POINT('',(9.938329986746,-17.70690398873,
    43.636360548288));
#184 = CARTESIAN_POINT('',(15.500000023659,-8.853588746779,
    44.318182313417));
#185 = CARTESIAN_POINT('',(15.5,4.141742618313E-08,44.999999566304));
#186 = CARTESIAN_POINT('',(15.499999999997,8.85358870075,45.681818168447
    ));
#187 = CARTESIAN_POINT('',(9.93832993948,17.706904167812,46.363637421271
    ));
#188 = CARTESIAN_POINT('',(-1.196558377715,22.678966735906,
    47.045447904835));
#189 = CARTESIAN_POINT('',(-14.79950251265,19.871821764082,
    47.727287752717));
#190 = CARTESIAN_POINT('',(-24.94225800341,8.195714311544,
    48.409067962813));
#191 = CARTESIAN_POINT('',(-24.94225798134,-8.195714378261,
    49.090931603643));
#192 = CARTESIAN_POINT('',(-14.79950245972,-19.87182180345,
    49.772711813427));
#193 = CARTESIAN_POINT('',(-1.196558317021,-22.67896673925,
    50.454551661855));
#194 = CARTESIAN_POINT('',(9.93832998674,-17.70690414117,51.136362144787
    ));
#195 = CARTESIAN_POINT('',(15.500000023659,-8.853588659377,
    51.818181398166));
#196 = CARTESIAN_POINT('',(15.500000000001,5.866293562029E-12,
    52.499999999932));
#197 = CARTESIAN_POINT('',(15.499999999999,8.853588788137,
    53.181817253447));
#198 = CARTESIAN_POINT('',(9.938329939472,17.706904015413,
    53.863639016926));
#199 = CARTESIAN_POINT('',(-1.196558377698,22.678966962262,
    54.545445534748));
#200 = CARTESIAN_POINT('',(-14.7995025127,19.871821472291,
    55.227290808619));
#201 = CARTESIAN_POINT('',(-24.94225800329,8.195714641821,
    55.909064502531));
#202 = CARTESIAN_POINT('',(-24.94225798155,-8.195714708417,
    56.590935063949));
#203 = CARTESIAN_POINT('',(-14.79950245948,-19.8718215119,
    57.272708757504));
#204 = CARTESIAN_POINT('',(-1.196558317186,-22.67896696539,
    57.954554031876));
#205 = CARTESIAN_POINT('',(9.938329986809,-17.70690398889,
    58.636360549292));
#206 = CARTESIAN_POINT('',(15.500000023646,-8.853588746719,
    59.31818231298));
#207 = CARTESIAN_POINT('',(15.5,4.140170774269E-08,59.999999566442));
#208 = CARTESIAN_POINT('',(15.5,-1.904032487232E-14,4.984629226713));
#209 = CARTESIAN_POINT('',(15.500001543008,8.853588993935,5.666446479874
    ));
#210 = CARTESIAN_POINT('',(9.938327741865,17.706903043252,6.348268244347
    ));
#211 = CARTESIAN_POINT('',(-1.196557300653,22.678972909607,7.03007476018
    ));
#212 = CARTESIAN_POINT('',(-14.79949679101,19.871813427373,
    7.711920037153));
#213 = CARTESIAN_POINT('',(-24.94227306162,8.195719273387,8.393693727146
    ));
#214 = CARTESIAN_POINT('',(-24.94224408258,-8.195710458507,
    9.075564292665));
#215 = CARTESIAN_POINT('',(-14.79950886915,-19.87183047999,
    9.757337982621));
#216 = CARTESIAN_POINT('',(-1.196559449808,-22.67896207256,
    10.439183259644));
#217 = CARTESIAN_POINT('',(9.938332646366,-17.70690578397,
    11.120989775438));
#218 = CARTESIAN_POINT('',(15.499999201128,-8.85358895252,
    11.802811539931));
#219 = CARTESIAN_POINT('',(15.500000720492,4.140946124886E-08,
    12.484628793085));
#220 = CARTESIAN_POINT('',(15.500000087695,8.85358891029,13.166447355751
    ));
#221 = CARTESIAN_POINT('',(9.938330103692,17.706903179003,
    13.848266822896));
#222 = CARTESIAN_POINT('',(-1.196560454715,22.678972728315,
    14.530076658415));
#223 = CARTESIAN_POINT('',(-14.79949328545,19.871813628869,
    15.211917927394));
#224 = CARTESIAN_POINT('',(-24.94227631325,8.195719086498,
    15.893695684053));
#225 = CARTESIAN_POINT('',(-24.94224157851,-8.195710314599,
    16.575562785669));
#226 = CARTESIAN_POINT('',(-14.79951044631,-19.87183057062,
    17.257338931773));
#227 = CARTESIAN_POINT('',(-1.196558662439,-22.67896202733,
    17.939182785798));
#228 = CARTESIAN_POINT('',(9.938332355256,-17.70690580069,
    18.620989950631));
#229 = CARTESIAN_POINT('',(15.499999266644,-8.853588948759,
    19.302811500502));
#230 = CARTESIAN_POINT('',(15.500000720488,4.140917947426E-08,
    19.984628793087));
#231 = CARTESIAN_POINT('',(15.50000008771,8.853588910288,20.666447355742
    ));
#232 = CARTESIAN_POINT('',(9.938330103648,17.706903179009,
    21.348266822928));
#233 = CARTESIAN_POINT('',(-1.196560454614,22.678972728314,
    22.030076658339));
#234 = CARTESIAN_POINT('',(-14.79949328564,19.871813628839,
    22.711917927528));
#235 = CARTESIAN_POINT('',(-24.94227631299,8.195719086589,
    23.393695683877));
#236 = CARTESIAN_POINT('',(-24.94224157879,-8.195710314749,
    24.075562785851));
#237 = CARTESIAN_POINT('',(-14.79951044607,-19.87183057047,
    24.757338931625));
#238 = CARTESIAN_POINT('',(-1.196558662607,-22.67896202742,
    25.439182785898));
#239 = CARTESIAN_POINT('',(9.938332355353,-17.70690580065,
    26.120989950575));
#240 = CARTESIAN_POINT('',(15.499999266596,-8.853588948769,
    26.802811500529));
#241 = CARTESIAN_POINT('',(15.500000720507,4.14087580336E-08,
    27.484628793076));
#242 = CARTESIAN_POINT('',(15.50000008774,8.853588910287,28.166447355729
    ));
#243 = CARTESIAN_POINT('',(9.938330103484,17.70690317906,28.848266822989
    ));
#244 = CARTESIAN_POINT('',(-1.19656045424,22.678972728133,
    29.530076658224));
#245 = CARTESIAN_POINT('',(-14.7994932862,19.871813629169,
    30.211917927674));
#246 = CARTESIAN_POINT('',(-24.94227631236,8.195719086213,
    30.893695683734));
#247 = CARTESIAN_POINT('',(-24.94224157933,-8.195710314477,
    31.57556278597));
#248 = CARTESIAN_POINT('',(-14.79951044571,-19.87183057057,
    32.257338931532));
#249 = CARTESIAN_POINT('',(-1.196558662806,-22.67896202742,
    32.939182785963));
#250 = CARTESIAN_POINT('',(9.938332355447,-17.70690580063,
    33.620989950534));
#251 = CARTESIAN_POINT('',(15.499999266557,-8.853588948773,
    34.30281150055));
#252 = CARTESIAN_POINT('',(15.500000720522,4.140763518179E-08,
    34.984628793068));
#253 = CARTESIAN_POINT('',(15.500000022256,8.853588906521,
    35.666447395144));
#254 = CARTESIAN_POINT('',(9.938330394428,17.706903195812,
    36.348266647859));
#255 = CARTESIAN_POINT('',(-1.19656124121,22.678972682838,
    37.030077131943));
#256 = CARTESIAN_POINT('',(-14.79949170969,19.871813719816,
    37.711916978683));
#257 = CARTESIAN_POINT('',(-24.94227881568,8.195718942427,38.3936971906)
  );
#258 = CARTESIAN_POINT('',(-24.94223832832,-8.19571012787,
    39.075560829104));
#259 = CARTESIAN_POINT('',(-14.79951395096,-19.87183077175,
    39.75734104135));
#260 = CARTESIAN_POINT('',(-1.19655550874,-22.67896184633,
    40.439180887597));
#261 = CARTESIAN_POINT('',(9.938329993442,-17.70690593632,
    41.120991372137));
#262 = CARTESIAN_POINT('',(15.500000722068,-8.853588865127,
    41.802810624546));
#263 = CARTESIAN_POINT('',(15.499999999895,-1.146235883986E-11,
    42.484629226777));
#264 = CARTESIAN_POINT('',(15.500001543391,8.853588993938,
    43.166446479655));
#265 = CARTESIAN_POINT('',(9.938327740901,17.706903043349,
    43.848268244855));
#266 = CARTESIAN_POINT('',(-1.196557298822,22.678972909324,
    44.530074759287));
#267 = CARTESIAN_POINT('',(-14.79949679373,19.871813427728,
    45.211920038398));
#268 = CARTESIAN_POINT('',(-24.94227305841,8.19571927327,45.893693725718
    ));
#269 = CARTESIAN_POINT('',(-24.94224408568,-8.19571045881,
    46.575564294037));
#270 = CARTESIAN_POINT('',(-14.79950886671,-19.87183047944,
    47.257337981503));
#271 = CARTESIAN_POINT('',(-1.196559451392,-22.67896207302,
    47.939183260414));
#272 = CARTESIAN_POINT('',(9.938332647205,-17.70690578376,
    48.620989774999));
#273 = CARTESIAN_POINT('',(15.499999200772,-8.853588952564,
    49.302811540131));
#274 = CARTESIAN_POINT('',(15.500000720607,4.140579855372E-08,
    49.984628793017));
#275 = CARTESIAN_POINT('',(15.500000022253,8.853588906511,50.66644739516
    ));
#276 = CARTESIAN_POINT('',(9.938330394087,17.706903195937,
    51.348266647983));
#277 = CARTESIAN_POINT('',(-1.196561240166,22.678972682451,
    52.03007713155));
#278 = CARTESIAN_POINT('',(-14.79949171166,19.871813720458,
    52.711916979428));
#279 = CARTESIAN_POINT('',(-24.94227881297,8.195718941789,53.39369718953
    ));
#280 = CARTESIAN_POINT('',(-24.94223833123,-8.195710127508,
    54.075560830352));
#281 = CARTESIAN_POINT('',(-14.79951394845,-19.87183077183,
    54.757341040144));
#282 = CARTESIAN_POINT('',(-1.196555510534,-22.67896184638,
    55.439180888565));
#283 = CARTESIAN_POINT('',(9.938329994521,-17.70690593628,
    56.120991371501));
#284 = CARTESIAN_POINT('',(15.50000072153,-8.853588865148,
    56.802810624878));
#285 = CARTESIAN_POINT('',(15.500000000106,7.145589675517E-12,
    57.484629226645));
#286 = CARTESIAN_POINT('',(15.500001542517,8.853588993911,
    58.166446480159));
#287 = CARTESIAN_POINT('',(9.938327743208,17.706903043189,
    58.848268243644));
#288 = CARTESIAN_POINT('',(-1.196557303326,22.678972909895,
    59.530074761449));
#289 = CARTESIAN_POINT('',(-14.79949678692,19.871813426935,
    60.211920035355));
#290 = CARTESIAN_POINT('',(-24.94227306655,8.195719273624,
    60.893693729214));
#291 = CARTESIAN_POINT('',(-24.94224407788,-8.19571045828,
    61.575564290692));
#292 = CARTESIAN_POINT('',(-14.79950887273,-19.87183048051,
    62.257337984195));
#293 = CARTESIAN_POINT('',(-1.196559447619,-22.67896207212,62.9391832586
    ));
#294 = CARTESIAN_POINT('',(9.938332645291,-17.70690578417,
    63.620989776001));
#295 = CARTESIAN_POINT('',(15.499999201543,-8.853588952482,
    64.302811539694));
#296 = CARTESIAN_POINT('',(15.500000720375,4.141070131247E-08,
    64.984628793155));
#297 = CARTESIAN_POINT('',(9.336355428356,-1.300348717592E-14,
    5.700337149737));
#298 = CARTESIAN_POINT('',(9.336357192912,5.332903975883,6.38215631087)
  );
#299 = CARTESIAN_POINT('',(5.986303624787,10.665762410688,7.063970714599
    ));
#300 = CARTESIAN_POINT('',(-0.720730605485,13.660314153193,
    7.745801198782));
#301 = CARTESIAN_POINT('',(-8.914422990978,11.970211795851,
    8.427590807412));
#302 = CARTESIAN_POINT('',(-15.02386606148,4.935945374296,9.109455908065
    ));
#303 = CARTESIAN_POINT('',(-15.02383296962,-4.935935147307,
    9.791218848677));
#304 = CARTESIAN_POINT('',(-8.914436920065,-11.97023120996,
    10.473083949368));
#305 = CARTESIAN_POINT('',(-0.720733196387,-13.66030175317,
    11.154873557947));
#306 = CARTESIAN_POINT('',(5.986309129503,-10.66576560326,11.83670404217
    ));
#307 = CARTESIAN_POINT('',(9.336354462786,-5.332904019556,
    12.518518445878));
#308 = CARTESIAN_POINT('',(9.336356252298,-4.366755823604E-08,
    13.200337607018));
#309 = CARTESIAN_POINT('',(9.336355528644,5.332904064092,13.882155387214
    ));
#310 = CARTESIAN_POINT('',(5.986306325722,10.665762267519,
    14.563972213594));
#311 = CARTESIAN_POINT('',(-0.720734212389,13.660314344407,
    15.245799196983));
#312 = CARTESIAN_POINT('',(-8.91441898213,11.970211583309,15.92759303229
    ));
#313 = CARTESIAN_POINT('',(-15.02386977991,4.935945571448,
    16.609453844361));
#314 = CARTESIAN_POINT('',(-15.02383010607,-4.935935299124,
    17.29122043793));
#315 = CARTESIAN_POINT('',(-8.914438723634,-11.97023111435,17.9730829484
    ));
#316 = CARTESIAN_POINT('',(-0.720732295981,-13.66030180089,
    18.654874057664));
#317 = CARTESIAN_POINT('',(5.986308796597,-10.66576558562,
    19.336703857411));
#318 = CARTESIAN_POINT('',(9.33635453771,-5.332904023524,20.01851848746)
  );
#319 = CARTESIAN_POINT('',(9.336356252293,-4.366828224023E-08,
    20.700337607016));
#320 = CARTESIAN_POINT('',(9.336355528661,5.332904064092,21.382155387224
    ));
#321 = CARTESIAN_POINT('',(5.986306325668,10.665762267519,
    22.063972213561));
#322 = CARTESIAN_POINT('',(-0.720734212261,13.660314344412,
    22.745799197066));
#323 = CARTESIAN_POINT('',(-8.91441898236,11.970211583284,
    23.427593032136));
#324 = CARTESIAN_POINT('',(-15.02386977959,4.935945571507,
    24.109453844579));
#325 = CARTESIAN_POINT('',(-15.02383010642,-4.935935299212,
    24.791220437692));
#326 = CARTESIAN_POINT('',(-8.914438723325,-11.97023111427,
    25.473082948605));
#327 = CARTESIAN_POINT('',(-0.720732296196,-13.66030180093,
    26.154874057525));
#328 = CARTESIAN_POINT('',(5.986308796719,-10.6657655856,26.836703857488
    ));
#329 = CARTESIAN_POINT('',(9.336354537652,-5.332904023524,
    27.518518487425));
#330 = CARTESIAN_POINT('',(9.336356252315,-4.367219014201E-08,
    28.200337607029));
#331 = CARTESIAN_POINT('',(9.336355528693,5.332904064096,28.882155387247
    ));
#332 = CARTESIAN_POINT('',(5.986306325492,10.665762267563,
    29.563972213443));
#333 = CARTESIAN_POINT('',(-0.720734211865,13.660314344246,
    30.245799197326));
#334 = CARTESIAN_POINT('',(-8.914418982959,11.970211583586,
    30.927593031747));
#335 = CARTESIAN_POINT('',(-15.02386977891,4.935945571174,
    31.609453845011));
#336 = CARTESIAN_POINT('',(-15.02383010701,-4.935935298985,
    32.291220437323));
#337 = CARTESIAN_POINT('',(-8.914438722914,-11.97023111434,
    32.973082948854));
#338 = CARTESIAN_POINT('',(-0.720732296431,-13.66030180094,
    33.654874057388));
#339 = CARTESIAN_POINT('',(5.986308796832,-10.66576558559,
    34.336703857552));
#340 = CARTESIAN_POINT('',(9.336354537606,-5.332904023525,
    35.018518487399));
#341 = CARTESIAN_POINT('',(9.336356252332,-4.367560028917E-08,
    35.700337607039));
#342 = CARTESIAN_POINT('',(9.336355453805,5.332904068064,36.382155345688
    ));
#343 = CARTESIAN_POINT('',(5.986306658218,10.665762249961,
    37.063972398092));
#344 = CARTESIAN_POINT('',(-0.720735111836,13.66031439187,
    37.745798697873));
#345 = CARTESIAN_POINT('',(-8.914417180108,11.970211488086,
    38.427594032286));
#346 = CARTESIAN_POINT('',(-15.02387264161,4.935945722984,
    39.109452256265));
#347 = CARTESIAN_POINT('',(-15.02382638931,-4.935935496275,
    39.791222500597));
#348 = CARTESIAN_POINT('',(-8.914442731373,-11.97023090161,
    40.473080724209));
#349 = CARTESIAN_POINT('',(-0.72072868955,-13.66030199229,
    41.154876059162));
#350 = CARTESIAN_POINT('',(5.986306095704,-10.66576544237,
    41.836702358457));
#351 = CARTESIAN_POINT('',(9.3363562021,-5.33290411174,42.518519411177)
  );
#352 = CARTESIAN_POINT('',(9.336355428236,-4.340444670348E-12,
    43.200337149671));
#353 = CARTESIAN_POINT('',(9.336357193346,5.33290397587,43.882156311122)
  );
#354 = CARTESIAN_POINT('',(5.986303623701,10.665762410819,
    44.563970713952));
#355 = CARTESIAN_POINT('',(-0.720730603406,13.660314152841,
    45.245801200033));
#356 = CARTESIAN_POINT('',(-8.914422994122,11.97021179633,
    45.927590805517));
#357 = CARTESIAN_POINT('',(-15.02386605766,4.935945373991,
    46.609455910356));
#358 = CARTESIAN_POINT('',(-15.02383297337,-4.935935147378,
    47.291218846445));
#359 = CARTESIAN_POINT('',(-8.914436917065,-11.97023120964,
    47.973083951131));
#360 = CARTESIAN_POINT('',(-0.720733198327,-13.66030175343,
    48.654873556816));
#361 = CARTESIAN_POINT('',(5.986309130512,-10.66576560317,
    49.336704042756));
#362 = CARTESIAN_POINT('',(9.336354462369,-5.332904019541,
    50.018518445637));
#363 = CARTESIAN_POINT('',(9.336356252429,-4.368947538469E-08,
    50.700337607093));
#364 = CARTESIAN_POINT('',(9.336355453796,5.332904068059,51.382155345696
    ));
#365 = CARTESIAN_POINT('',(5.986306657856,10.665762250122,
    52.063972397842));
#366 = CARTESIAN_POINT('',(-0.720735110722,13.660314391353,
    52.745798698588));
#367 = CARTESIAN_POINT('',(-8.914417182212,11.970211488989,
    53.427594030988));
#368 = CARTESIAN_POINT('',(-15.02387263867,4.935945721964,
    54.109452258015));
#369 = CARTESIAN_POINT('',(-15.02382639251,-4.935935495487,
    54.791222498733));
#370 = CARTESIAN_POINT('',(-8.914442728554,-11.97023090205,
    55.473080725823));
#371 = CARTESIAN_POINT('',(-0.720728691594,-13.66030199208,
    56.154876058003));
#372 = CARTESIAN_POINT('',(5.986306096936,-10.66576544247,
    56.836702359149));
#373 = CARTESIAN_POINT('',(9.336356201486,-5.332904111699,
    57.518519410839));
#374 = CARTESIAN_POINT('',(9.336355428477,-6.141517849834E-12,
    58.200337149799));
#375 = CARTESIAN_POINT('',(9.336357192359,5.332903975913,58.882156310555
    ));
#376 = CARTESIAN_POINT('',(5.986303626284,10.665762410474,
    59.563970715476));
#377 = CARTESIAN_POINT('',(-0.720730608447,13.660314153791,
    60.245801197034));
#378 = CARTESIAN_POINT('',(-8.914422986427,11.970211794935,
    60.927590810084));
#379 = CARTESIAN_POINT('',(-15.02386606702,4.935945375098,
    61.609455904846));
#380 = CARTESIAN_POINT('',(-15.02383296424,-4.93593514761,
    62.291218851773));
#381 = CARTESIAN_POINT('',(-8.914436924245,-11.97023121008,
    62.97308394698));
#382 = CARTESIAN_POINT('',(-0.720733193795,-13.66030175297,
    63.654873559425));
#383 = CARTESIAN_POINT('',(5.986309128229,-10.66576560332,
    64.336704041443));
#384 = CARTESIAN_POINT('',(9.336354463271,-5.332904019573,
    65.018518446154));
#385 = CARTESIAN_POINT('',(9.336356252165,-4.36496351286E-08,
    65.700337606945));
#386 = CARTESIAN_POINT('',(4.252649236975,-4.371503159462E-15,
    1.06581410364E-14));
#387 = CARTESIAN_POINT('',(4.252649236977,2.4290814701,0.681820734808));
#388 = CARTESIAN_POINT('',(2.726720411512,4.858308354803,1.363629067473)
  );
#389 = CARTESIAN_POINT('',(-0.328275344567,6.221816185659,2.045479320499
    ));
#390 = CARTESIAN_POINT('',(-4.060486126266,5.453067905943,2.727223014468
    ));
#391 = CARTESIAN_POINT('',(-6.843254148926,2.247313902203,3.409163509666
    ));
#392 = CARTESIAN_POINT('',(-6.843254209142,-2.247313719045,
    4.090837682395));
#393 = CARTESIAN_POINT('',(-4.060486272192,-5.453067797177,
    4.772778177693));
#394 = CARTESIAN_POINT('',(-0.328275511152,-6.221816176938,
    5.454521871524));
#395 = CARTESIAN_POINT('',(2.726720281473,-4.858308427757,6.136372124659
    ));
#396 = CARTESIAN_POINT('',(4.252649171949,-2.429081583953,6.818180457267
    ));
#397 = CARTESIAN_POINT('',(4.252649236974,-1.138381115345E-07,
    7.500001192094));
#398 = CARTESIAN_POINT('',(4.252649236976,2.429081700052,8.181818326917)
  );
#399 = CARTESIAN_POINT('',(2.726720411514,4.858307981587,8.863632975226)
  );
#400 = CARTESIAN_POINT('',(-0.328275344564,6.221816684105,9.54547410198)
  );
#401 = CARTESIAN_POINT('',(-4.060486126285,5.453067351913,
    10.227228814531));
#402 = CARTESIAN_POINT('',(-6.843254148894,2.247314416109,
    10.909158129773));
#403 = CARTESIAN_POINT('',(-6.843254209173,-2.247314114782,
    11.590841825431));
#404 = CARTESIAN_POINT('',(-4.060486272174,-5.453067547962,
    12.272775568263));
#405 = CARTESIAN_POINT('',(-0.328275511157,-6.221816301328,
    12.95452317424));
#406 = CARTESIAN_POINT('',(2.726720281473,-4.85830838178,13.636371643009
    ));
#407 = CARTESIAN_POINT('',(4.25264917195,-2.429081594296,14.318180565667
    ));
#408 = CARTESIAN_POINT('',(4.252649236974,-1.138394579575E-07,
    15.000001192088));
#409 = CARTESIAN_POINT('',(4.252649236975,2.429081700055,15.681818326943
    ));
#410 = CARTESIAN_POINT('',(2.726720411514,4.858307981589,16.363632975138
    ));
#411 = CARTESIAN_POINT('',(-0.32827534456,6.221816684079,17.045474102198
    ));
#412 = CARTESIAN_POINT('',(-4.060486126295,5.453067351984,
    17.727228814133));
#413 = CARTESIAN_POINT('',(-6.843254148877,2.247314415989,
    18.409158130326));
#414 = CARTESIAN_POINT('',(-6.843254209189,-2.247314114642,
    19.090841824835));
#415 = CARTESIAN_POINT('',(-4.060486272165,-5.453067548082,
    19.772775568769));
#416 = CARTESIAN_POINT('',(-0.32827551116,-6.221816301252,
    20.454523173897));
#417 = CARTESIAN_POINT('',(2.726720281474,-4.858308381815,
    21.136371643198));
#418 = CARTESIAN_POINT('',(4.252649171949,-2.429081594284,
    21.818180565581));
#419 = CARTESIAN_POINT('',(4.252649236975,-1.138429955305E-07,
    22.500001192121));
#420 = CARTESIAN_POINT('',(4.25264923697,2.429081700065,23.181818326995)
  );
#421 = CARTESIAN_POINT('',(2.72672041154,4.858307981547,23.863632974871)
  );
#422 = CARTESIAN_POINT('',(-0.328275344627,6.221816684195,
    24.545474102771));
#423 = CARTESIAN_POINT('',(-4.060486126187,5.453067351775,
    25.227228813297));
#424 = CARTESIAN_POINT('',(-6.843254148991,2.24731441625,25.909158131237
    ));
#425 = CARTESIAN_POINT('',(-6.843254209112,-2.24731411487,
    26.590841824059));
#426 = CARTESIAN_POINT('',(-4.060486272191,-5.453067547945,27.2727755693
    ));
#427 = CARTESIAN_POINT('',(-0.328275511162,-6.221816301303,
    27.954523173594));
#428 = CARTESIAN_POINT('',(2.72672028148,-4.858308381809,28.636371643348
    ));
#429 = CARTESIAN_POINT('',(4.252649171948,-2.429081594279,
    29.318180565515));
#430 = CARTESIAN_POINT('',(4.252649236974,-1.138461147993E-07,
    30.000001192146));
#431 = CARTESIAN_POINT('',(4.252649236968,2.429081710414,30.681818218649
    ));
#432 = CARTESIAN_POINT('',(2.72672041155,4.858307935574,31.363633456262)
  );
#433 = CARTESIAN_POINT('',(-0.328275344641,6.221816808539,
    32.045472800656));
#434 = CARTESIAN_POINT('',(-4.060486126189,5.453067102687,
    32.727231421786));
#435 = CARTESIAN_POINT('',(-6.84325414895,2.247314811766,33.409153989265
    ));
#436 = CARTESIAN_POINT('',(-6.843254209191,-2.24731462851,34.0908472031)
  );
#437 = CARTESIAN_POINT('',(-4.06048627211,-5.45306699414,34.77276976964)
  );
#438 = CARTESIAN_POINT('',(-0.328275511215,-6.221816799621,
    35.45452839216));
#439 = CARTESIAN_POINT('',(2.7267202815,-4.858308008629,36.136367735294)
  );
#440 = CARTESIAN_POINT('',(4.252649171945,-2.429081824241,
    36.818182973733));
#441 = CARTESIAN_POINT('',(4.252649236974,1.076987110604E-11,
    37.499999999828));
#442 = CARTESIAN_POINT('',(4.252649236966,2.429081470084,38.181820735448
    ));
#443 = CARTESIAN_POINT('',(2.726720411559,4.858308354808,38.863629065874
    ));
#444 = CARTESIAN_POINT('',(-0.32827534466,6.221816185678,39.545479323516
    ));
#445 = CARTESIAN_POINT('',(-4.060486126166,5.453067905942,
    40.227223009988));
#446 = CARTESIAN_POINT('',(-6.843254148956,2.247313902096,
    40.909163515016));
#447 = CARTESIAN_POINT('',(-6.843254209217,-2.247313718784,
    41.590837677197));
#448 = CARTESIAN_POINT('',(-4.060486272063,-5.453067797522,
    42.272778181828));
#449 = CARTESIAN_POINT('',(-0.328275511254,-6.221816176639,
    42.954521868828));
#450 = CARTESIAN_POINT('',(2.726720281519,-4.858308427939,43.63637212609
    ));
#451 = CARTESIAN_POINT('',(4.25264917194,-2.429081583875,44.318180456663
    ));
#452 = CARTESIAN_POINT('',(4.252649236975,-1.138604331929E-07,
    45.000001192287));
#453 = CARTESIAN_POINT('',(4.252649236958,2.429081710423,45.681818218651
    ));
#454 = CARTESIAN_POINT('',(2.7267204116,4.858307935597,46.363633455706)
  );
#455 = CARTESIAN_POINT('',(-0.328275344766,6.221816808444,
    47.045472802278));
#456 = CARTESIAN_POINT('',(-4.060486125993,5.453067102899,
    47.727231418819));
#457 = CARTESIAN_POINT('',(-6.843254149158,2.247314811428,
    48.409153993324));
#458 = CARTESIAN_POINT('',(-6.843254209037,-2.247314628094,
    49.090847198688));
#459 = CARTESIAN_POINT('',(-4.060486272188,-5.453066994542,
    49.772769773567));
#460 = CARTESIAN_POINT('',(-0.328275511187,-6.221816799316,
    50.454528389255));
#461 = CARTESIAN_POINT('',(2.726720281492,-4.858308008809,
    51.136367737077));
#462 = CARTESIAN_POINT('',(4.252649171945,-2.429081824158,
    51.818182972844));
#463 = CARTESIAN_POINT('',(4.252649236976,-1.875356814285E-11,
    52.500000000169));
#464 = CARTESIAN_POINT('',(4.252649236987,2.429081470173,53.181820733994
    ));
#465 = CARTESIAN_POINT('',(2.726720411456,4.858308354624,53.863629069672
    ));
#466 = CARTESIAN_POINT('',(-0.328275344431,6.221816185994,
    54.545479316218));
#467 = CARTESIAN_POINT('',(-4.06048612645,5.453067905444,55.227223020904
    ));
#468 = CARTESIAN_POINT('',(-6.843254148794,2.247313902817,
    55.909163501982));
#469 = CARTESIAN_POINT('',(-6.843254209147,-2.247313719671,
    56.590837689776));
#470 = CARTESIAN_POINT('',(-4.06048627228,-5.453067796653,
    57.272778171954));
#471 = CARTESIAN_POINT('',(-0.32827551106,-6.221816177291,
    57.954521875131));
#472 = CARTESIAN_POINT('',(2.726720281428,-4.858308427571,
    58.636372122847));
#473 = CARTESIAN_POINT('',(4.252649171959,-2.429081584027,
    59.318180457971));
#474 = CARTESIAN_POINT('',(4.252649236975,-1.138177744692E-07,
    60.000001191902));
#475 = CARTESIAN_POINT('',(9.336355428356,-1.307287611496E-14,
    -5.700337149737));
#476 = CARTESIAN_POINT('',(9.336353663803,5.332903505247,-5.018517988604
    ));
#477 = CARTESIAN_POINT('',(5.986308651052,10.665764634036,
    -4.336703584872));
#478 = CARTESIAN_POINT('',(-0.720733068811,13.660300550917,
    -3.654873100697));
#479 = CARTESIAN_POINT('',(-8.91443607747,11.970230195443,
    -2.973083492055));
#480 = CARTESIAN_POINT('',(-15.02383162059,4.935934781759,
    -2.291218391415));
#481 = CARTESIAN_POINT('',(-15.02386475873,-4.935944868221,
    -1.609455450791));
#482 = CARTESIAN_POINT('',(-8.914422260268,-11.97021069791,
    -0.927590350109));
#483 = CARTESIAN_POINT('',(-0.720730605752,-13.66031294423,
    -0.245800741525));
#484 = CARTESIAN_POINT('',(5.986303046588,-10.66576149743,0.436029742696
    ));
#485 = CARTESIAN_POINT('',(9.336356344037,-5.33290354892,1.117844146405)
  );
#486 = CARTESIAN_POINT('',(9.336354604413,-4.366750355755E-08,
    1.799663307545));
#487 = CARTESIAN_POINT('',(9.336355328067,5.332903593456,2.481481087741)
  );
#488 = CARTESIAN_POINT('',(5.986305950133,10.66576449087,3.16329791412)
  );
#489 = CARTESIAN_POINT('',(-0.720729461933,13.660300742124,
    3.845124897512));
#490 = CARTESIAN_POINT('',(-8.914440086297,11.970229982902,
    4.526918732811));
#491 = CARTESIAN_POINT('',(-15.02382790216,4.935934978934,5.208779544895
    ));
#492 = CARTESIAN_POINT('',(-15.02386762227,-4.935945020088,
    5.890546138448));
#493 = CARTESIAN_POINT('',(-8.914420456714,-11.97021060225,
    6.572408648933));
#494 = CARTESIAN_POINT('',(-0.720731506143,-13.66031299198,
    7.254199758187));
#495 = CARTESIAN_POINT('',(5.986303379486,-10.66576147978,7.936029557939
    ));
#496 = CARTESIAN_POINT('',(9.336356269117,-5.332903552889,8.617844187986
    ));
#497 = CARTESIAN_POINT('',(9.336354604418,-4.366870103023E-08,
    9.299663307543));
#498 = CARTESIAN_POINT('',(9.336355328048,5.332903593456,9.981481087751)
  );
#499 = CARTESIAN_POINT('',(5.986305950196,10.665764490885,
    10.663297914087));
#500 = CARTESIAN_POINT('',(-0.720729462083,13.660300742058,
    11.345124897593));
#501 = CARTESIAN_POINT('',(-8.914440086032,11.970229983055,
    12.026918732658));
#502 = CARTESIAN_POINT('',(-15.02382790253,4.935934978697,
    12.708779545113));
#503 = CARTESIAN_POINT('',(-15.02386762188,-4.935945019831,
    13.390546138209));
#504 = CARTESIAN_POINT('',(-8.914420457065,-11.97021060245,
    14.072408649139));
#505 = CARTESIAN_POINT('',(-0.720731505896,-13.66031299186,
    14.754199758047));
#506 = CARTESIAN_POINT('',(5.986303379349,-10.66576147983,
    15.436029558016));
#507 = CARTESIAN_POINT('',(9.336356269176,-5.332903552882,
    16.117844187952));
#508 = CARTESIAN_POINT('',(9.336354604396,-4.366666141176E-08,
    16.799663307556));
#509 = CARTESIAN_POINT('',(9.336355328012,5.332903593466,17.481481087773
    ));
#510 = CARTESIAN_POINT('',(5.986305950395,10.665764490777,
    18.163297913971));
#511 = CARTESIAN_POINT('',(-0.720729462543,13.6603007424,18.84512489785)
  );
#512 = CARTESIAN_POINT('',(-8.914440085315,11.970229982441,
    19.526918732275));
#513 = CARTESIAN_POINT('',(-15.02382790334,4.935934979407,
    20.208779545536));
#514 = CARTESIAN_POINT('',(-15.02386762118,-4.935945020373,
    20.890546137849));
#515 = CARTESIAN_POINT('',(-8.914420457515,-11.97021060219,
    21.572408649381));
#516 = CARTESIAN_POINT('',(-0.720731505666,-13.66031299193,
    22.254199757914));
#517 = CARTESIAN_POINT('',(5.986303379247,-10.66576147983,
    22.936029558078));
#518 = CARTESIAN_POINT('',(9.33635626922,-5.332903552879,23.617844187925
    ));
#519 = CARTESIAN_POINT('',(9.336354604379,-4.366617553653E-08,
    24.299663307565));
#520 = CARTESIAN_POINT('',(9.336355402897,5.332903597437,24.981481046214
    ));
#521 = CARTESIAN_POINT('',(5.98630561768,10.665764473115,25.663298098619
    ));
#522 = CARTESIAN_POINT('',(-0.72072856259,13.660300790157,
    26.345124398399));
#523 = CARTESIAN_POINT('',(-8.914441888158,11.970229886863,
    27.02691973281));
#524 = CARTESIAN_POINT('',(-15.02382504063,4.935935131021,
    27.708777956795));
#525 = CARTESIAN_POINT('',(-15.02387133893,-4.935945217147,
    28.390548201118));
#526 = CARTESIAN_POINT('',(-8.914416449011,-11.97021039004,
    29.07240642474));
#527 = CARTESIAN_POINT('',(-0.720735112573,-13.6603131829,
    29.754201759686));
#528 = CARTESIAN_POINT('',(5.986306080383,-10.66576133674,
    30.436028058984));
#529 = CARTESIAN_POINT('',(9.336354604726,-5.332903641088,
    31.117845111703));
#530 = CARTESIAN_POINT('',(9.336355428475,1.240747782294E-11,
    31.799662850197));
#531 = CARTESIAN_POINT('',(9.336353663357,5.332903505251,32.481482011648
    ));
#532 = CARTESIAN_POINT('',(5.986308652196,10.665764633887,
    33.163296414477));
#533 = CARTESIAN_POINT('',(-0.720733071029,13.660300551342,
    33.845126900563));
#534 = CARTESIAN_POINT('',(-8.914436074109,11.970230194861,
    34.526916506035));
#535 = CARTESIAN_POINT('',(-15.02383162463,4.935934782096,
    35.208781610895));
#536 = CARTESIAN_POINT('',(-15.02386475484,-4.935944868037,
    35.890544546958));
#537 = CARTESIAN_POINT('',(-8.91442226329,-11.97021069843,
    36.572409651669));
#538 = CARTESIAN_POINT('',(-0.720730603838,-13.66031294377,
    37.254199257336));
#539 = CARTESIAN_POINT('',(5.986303045599,-10.66576149765,
    37.936029743286));
#540 = CARTESIAN_POINT('',(9.33635634445,-5.332903548879,38.617844146163
    ));
#541 = CARTESIAN_POINT('',(9.336354604282,-4.366285982771E-08,
    39.29966330762));
#542 = CARTESIAN_POINT('',(9.336355402893,5.33290359745,39.981481046221)
  );
#543 = CARTESIAN_POINT('',(5.986305618098,10.665764472966,
    40.663298098374));
#544 = CARTESIAN_POINT('',(-0.720728563832,13.660300790611,
    41.345124399103));
#545 = CARTESIAN_POINT('',(-8.914441885865,11.970229886102,
    42.026919731532));
#546 = CARTESIAN_POINT('',(-15.02382504376,4.935935131822,
    42.708777958521));
#547 = CARTESIAN_POINT('',(-15.02387133557,-4.935945217671,
    43.390548199278));
#548 = CARTESIAN_POINT('',(-8.914416451927,-11.97021038986,
    44.072406426336));
#549 = CARTESIAN_POINT('',(-0.720735110484,-13.66031318289,
    44.754201758538));
#550 = CARTESIAN_POINT('',(5.986306079137,-10.66576133677,
    45.436028059672));
#551 = CARTESIAN_POINT('',(9.33635460534,-5.332903641066,46.117845111367
    ));
#552 = CARTESIAN_POINT('',(9.336355428236,-9.115999621834E-12,
    46.799662850325));
#553 = CARTESIAN_POINT('',(9.336353664365,5.332903505274,47.48148201108)
  );
#554 = CARTESIAN_POINT('',(5.986308649504,10.665764634109,
    48.163296416009));
#555 = CARTESIAN_POINT('',(-0.720733065722,13.660300550579,
    48.845126897545));
#556 = CARTESIAN_POINT('',(-8.914436082193,11.970230195986,
    49.526916510635));
#557 = CARTESIAN_POINT('',(-15.02383161492,4.93593478139,50.208781605343
    ));
#558 = CARTESIAN_POINT('',(-15.02386476415,-4.935944868339,
    50.890544552327));
#559 = CARTESIAN_POINT('',(-8.914422256122,-11.97021069743,
    51.572409647485));
#560 = CARTESIAN_POINT('',(-0.720730608298,-13.66031294467,
    52.254199259963));
#561 = CARTESIAN_POINT('',(5.986303047838,-10.66576149723,
    52.936029741965));
#562 = CARTESIAN_POINT('',(9.336356343557,-5.332903548958,
    53.617844146682));
#563 = CARTESIAN_POINT('',(9.336354604547,-4.367017221452E-08,
    54.299663307471));
#564 = CARTESIAN_POINT('',(15.5,-2.008115895791E-14,-4.984629226713));
#565 = CARTESIAN_POINT('',(15.499998456997,8.853588582389,
    -4.302811973553));
#566 = CARTESIAN_POINT('',(9.938332137054,17.706904987447,
    -3.620990209075));
#567 = CARTESIAN_POINT('',(-1.196559454691,22.678961015168,
    -2.939183693257));
#568 = CARTESIAN_POINT('',(-14.79950823444,19.871829516802,
    -2.257338416259));
#569 = CARTESIAN_POINT('',(-24.94224294496,8.195710010795,
    -1.575564726295));
#570 = CARTESIAN_POINT('',(-24.94227188041,-8.195718958905,
    -0.893694160751));
#571 = CARTESIAN_POINT('',(-14.79949604996,-19.87181254334,
    -0.21192047081));
#572 = CARTESIAN_POINT('',(-1.196557184446,-22.67897185852,
    0.469924806219));
#573 = CARTESIAN_POINT('',(9.938327327196,-17.70690219365,1.151731322011
    ));
#574 = CARTESIAN_POINT('',(15.500000846178,-8.853588540975,
    1.833553086504));
#575 = CARTESIAN_POINT('',(15.499999279508,4.140950816967E-08,
    2.515370339659));
#576 = CARTESIAN_POINT('',(15.499999912302,8.853588498745,3.197188902325
    ));
#577 = CARTESIAN_POINT('',(9.938329775259,17.706905123202,3.879008369467
    ));
#578 = CARTESIAN_POINT('',(-1.196556300701,22.678960833867,
    4.560818204996));
#579 = CARTESIAN_POINT('',(-14.79951173989,19.8718297183,5.242659473954)
  );
#580 = CARTESIAN_POINT('',(-24.94223969346,8.195709823927,5.924437230648
    ));
#581 = CARTESIAN_POINT('',(-24.94227438437,-8.195718815045,
    6.606304332221));
#582 = CARTESIAN_POINT('',(-14.79949447289,-19.87181263391,
    7.288080478364));
#583 = CARTESIAN_POINT('',(-1.196557971771,-22.67897181332,
    7.969924332362));
#584 = CARTESIAN_POINT('',(9.938327618292,-17.70690221036,8.651731497209
    ));
#585 = CARTESIAN_POINT('',(15.500000780664,-8.853588537214,
    9.333553047075));
#586 = CARTESIAN_POINT('',(15.499999279512,4.140882925441E-08,
    10.015370339661));
#587 = CARTESIAN_POINT('',(15.499999912285,8.853588498743,
    10.697188902315));
#588 = CARTESIAN_POINT('',(9.938329775319,17.706905123219,
    11.379008369502));
#589 = CARTESIAN_POINT('',(-1.19655630085,22.67896083381,12.060818204913
    ));
#590 = CARTESIAN_POINT('',(-14.79951173962,19.871829718418,
    12.742659474099));
#591 = CARTESIAN_POINT('',(-24.94223969383,8.195709823763,
    13.424437230456));
#592 = CARTESIAN_POINT('',(-24.94227438396,-8.195718814887,
    14.106304332417));
#593 = CARTESIAN_POINT('',(-14.79949447324,-19.87181263402,
    14.788080478205));
#594 = CARTESIAN_POINT('',(-1.196557971528,-22.67897181327,
    15.469924332467));
#595 = CARTESIAN_POINT('',(9.938327618161,-17.70690221038,16.15173149715
    ));
#596 = CARTESIAN_POINT('',(15.500000780719,-8.853588537218,
    16.833553047102));
#597 = CARTESIAN_POINT('',(15.499999279493,4.141361677201E-08,
    17.51537033965));
#598 = CARTESIAN_POINT('',(15.499999912255,8.853588498747,
    18.197188902302));
#599 = CARTESIAN_POINT('',(9.938329775483,17.706905123136,
    18.879008369563));
#600 = CARTESIAN_POINT('',(-1.196556301223,22.678960834077,
    19.560818204799));
#601 = CARTESIAN_POINT('',(-14.79951173904,19.871829717942,
    20.242659474243));
#602 = CARTESIAN_POINT('',(-24.94223969449,8.195709824312,
    20.924437230317));
#603 = CARTESIAN_POINT('',(-24.94227438339,-8.195718815307,
    21.606304332533));
#604 = CARTESIAN_POINT('',(-14.79949447363,-19.87181263381,
    22.288080478115));
#605 = CARTESIAN_POINT('',(-1.196557971321,-22.67897181333,
    22.969924332531));
#606 = CARTESIAN_POINT('',(9.938327618067,-17.70690221037,23.65173149711
    ));
#607 = CARTESIAN_POINT('',(15.500000780759,-8.853588537221,
    24.333553047123));
#608 = CARTESIAN_POINT('',(15.499999279478,4.141588196005E-08,
    25.015370339642));
#609 = CARTESIAN_POINT('',(15.49999997774,8.853588494984,25.697188941717
    ));
#610 = CARTESIAN_POINT('',(9.938329484535,17.706905139836,
    26.379008194433));
#611 = CARTESIAN_POINT('',(-1.196555514258,22.678960788897,
    27.060818678516));
#612 = CARTESIAN_POINT('',(-14.79951331551,19.871829808523,
    27.742658525256));
#613 = CARTESIAN_POINT('',(-24.94223719127,8.195709680347,
    28.424438737177));
#614 = CARTESIAN_POINT('',(-24.94227763426,-8.195718628235,
    29.106302375673));
#615 = CARTESIAN_POINT('',(-14.7994909685,-19.87181283552,
    29.788082587929));
#616 = CARTESIAN_POINT('',(-1.196561125314,-22.6789716319,
    30.469922434168));
#617 = CARTESIAN_POINT('',(9.938329980044,-17.70690234617,
    31.151732918712));
#618 = CARTESIAN_POINT('',(15.499999325253,-8.853588453567,
    31.833552171119));
#619 = CARTESIAN_POINT('',(15.500000000104,3.201772180716E-12,
    32.515370773351));
#620 = CARTESIAN_POINT('',(15.499998456612,8.853588582408,
    33.197188026229));
#621 = CARTESIAN_POINT('',(9.938332138038,17.706904987299,
    33.879009791428));
#622 = CARTESIAN_POINT('',(-1.196559456614,22.678961015564,
    34.560816305865));
#623 = CARTESIAN_POINT('',(-14.79950823147,19.871829516229,
    35.242661584964));
#624 = CARTESIAN_POINT('',(-24.9422429486,8.19571001124,35.924435272304)
  );
#625 = CARTESIAN_POINT('',(-24.94227187683,-8.195718958986,
    36.606305840598));
#626 = CARTESIAN_POINT('',(-14.79949605278,-19.87181254352,
    37.288079528086));
#627 = CARTESIAN_POINT('',(-1.196557182664,-22.67897185835,
    37.969924806983));
#628 = CARTESIAN_POINT('',(9.938327326288,-17.70690219371,
    38.651731321574));
#629 = CARTESIAN_POINT('',(15.500000846546,-8.853588540995,
    39.333553086704));
#630 = CARTESIAN_POINT('',(15.499999279393,4.142905037086E-08,
    40.015370339591));
#631 = CARTESIAN_POINT('',(15.499999977741,8.853588494989,
    40.697188941733));
#632 = CARTESIAN_POINT('',(9.938329484874,17.706905139689,
    41.379008194559));
#633 = CARTESIAN_POINT('',(-1.196555515268,22.678960789357,
    42.060818678118));
#634 = CARTESIAN_POINT('',(-14.79951331364,19.871829807712,
    42.742658526009));
#635 = CARTESIAN_POINT('',(-24.94223719384,8.195709681299,
    43.424438736094));
#636 = CARTESIAN_POINT('',(-24.94227763145,-8.195718629019,
    44.106302376935));
#637 = CARTESIAN_POINT('',(-14.79949097099,-19.87181283506,
    44.78808258671));
#638 = CARTESIAN_POINT('',(-1.196561123506,-22.67897163212,
    45.469922435143));
#639 = CARTESIAN_POINT('',(9.938329978959,-17.70690234607,
    46.151732918073));
#640 = CARTESIAN_POINT('',(15.499999325788,-8.853588453606,
    46.833552171453));
#641 = CARTESIAN_POINT('',(15.499999999896,4.533651232208E-12,
    47.515370773219));
#642 = CARTESIAN_POINT('',(15.499998457482,8.853588582363,
    48.197188026734));
#643 = CARTESIAN_POINT('',(9.938332135738,17.706904987635,
    48.879009790212));
#644 = CARTESIAN_POINT('',(-1.19655945208,22.678961014637,
    49.560816308037));
#645 = CARTESIAN_POINT('',(-14.79950823844,19.871829517638,
    50.242661581903));
#646 = CARTESIAN_POINT('',(-24.94224294009,8.195710010013,
    50.924435275821));
#647 = CARTESIAN_POINT('',(-24.94227188515,-8.195718958526,
    51.606305837232));
#648 = CARTESIAN_POINT('',(-14.79949604627,-19.87181254333,
    52.288079530793));
#649 = CARTESIAN_POINT('',(-1.196557186742,-22.67897185864,
    52.969924805161));
#650 = CARTESIAN_POINT('',(9.938327328324,-17.70690219362,
    53.651731322579));
#651 = CARTESIAN_POINT('',(15.50000084575,-8.853588540955,
    54.333553086267));
#652 = CARTESIAN_POINT('',(15.499999279625,4.139274395465E-08,
    55.015370339729));
#653 = CARTESIAN_POINT('',(15.5,-1.880440247959E-14,0.));
#654 = CARTESIAN_POINT('',(15.500000000003,8.853588788161,0.68181725316)
  );
#655 = CARTESIAN_POINT('',(9.938329939458,17.706904015352,1.363639017638
    ));
#656 = CARTESIAN_POINT('',(-1.19655837767,22.678966962383,2.045445533456
    ));
#657 = CARTESIAN_POINT('',(-14.79950251273,19.871821472095,
    2.727290810458));
#658 = CARTESIAN_POINT('',(-24.94225800329,8.195714642081,3.40906450041)
  );
#659 = CARTESIAN_POINT('',(-24.9422579815,-8.195714708693,4.090935065974
    ));
#660 = CARTESIAN_POINT('',(-14.79950245956,-19.87182151168,
    4.772708755892));
#661 = CARTESIAN_POINT('',(-1.196558317128,-22.67896696553,
    5.454554032939));
#662 = CARTESIAN_POINT('',(9.938329986782,-17.70690398881,6.136360548722
    ));
#663 = CARTESIAN_POINT('',(15.500000023652,-8.853588746747,
    6.818182313218));
#664 = CARTESIAN_POINT('',(15.5,4.140947051923E-08,7.499999566372));
#665 = CARTESIAN_POINT('',(15.499999999999,8.853588704517,8.181818129038
    ));
#666 = CARTESIAN_POINT('',(9.938329939474,17.706904151102,8.863637596184
    ));
#667 = CARTESIAN_POINT('',(-1.196558377706,22.678966781093,
    9.545447431699));
#668 = CARTESIAN_POINT('',(-14.79950251267,19.871821673582,
    10.227288700686));
#669 = CARTESIAN_POINT('',(-24.94225800336,8.195714455214,
    10.909066457336));
#670 = CARTESIAN_POINT('',(-24.94225798144,-8.19571456482,
    11.590933558958));
#671 = CARTESIAN_POINT('',(-14.7995024596,-19.87182160227,
    12.272709705059));
#672 = CARTESIAN_POINT('',(-1.196558317106,-22.67896692032,
    12.954553559085));
#673 = CARTESIAN_POINT('',(9.938329986775,-17.70690400553,
    13.636360723918));
#674 = CARTESIAN_POINT('',(15.500000023654,-8.853588742987,
    14.318182273789));
#675 = CARTESIAN_POINT('',(15.5,4.140901724292E-08,14.999999566374));
#676 = CARTESIAN_POINT('',(15.499999999997,8.853588704515,
    15.681818129028));
#677 = CARTESIAN_POINT('',(9.938329939485,17.706904151116,
    16.363637596215));
#678 = CARTESIAN_POINT('',(-1.196558377736,22.678966781058,
    17.045447431625));
#679 = CARTESIAN_POINT('',(-14.79950251262,19.871821673636,
    17.727288700815));
#680 = CARTESIAN_POINT('',(-24.94225800342,8.195714455166,
    18.409066457163));
#681 = CARTESIAN_POINT('',(-24.94225798137,-8.195714564808,
    19.090933559138));
#682 = CARTESIAN_POINT('',(-14.79950245966,-19.87182160225,
    19.772709704911));
#683 = CARTESIAN_POINT('',(-1.196558317065,-22.67896692034,
    20.454553559185));
#684 = CARTESIAN_POINT('',(9.938329986756,-17.70690400551,
    21.136360723862));
#685 = CARTESIAN_POINT('',(15.500000023658,-8.853588742993,
    21.818182273816));
#686 = CARTESIAN_POINT('',(15.5,4.141118346845E-08,22.499999566363));
#687 = CARTESIAN_POINT('',(15.499999999997,8.853588704516,
    23.181818129016));
#688 = CARTESIAN_POINT('',(9.938329939482,17.706904151099,
    23.863637596276));
#689 = CARTESIAN_POINT('',(-1.196558377729,22.678966781104,
    24.54544743151));
#690 = CARTESIAN_POINT('',(-14.79950251262,19.871821673557,
    25.22728870096));
#691 = CARTESIAN_POINT('',(-24.94225800343,8.195714455258,
    25.909066457023));
#692 = CARTESIAN_POINT('',(-24.94225798136,-8.195714564882,
    26.590933559254));
#693 = CARTESIAN_POINT('',(-14.79950245967,-19.8718216022,
    27.272709704822));
#694 = CARTESIAN_POINT('',(-1.196558317066,-22.67896692037,
    27.954553559248));
#695 = CARTESIAN_POINT('',(9.938329986759,-17.7069040055,28.636360723822
    ));
#696 = CARTESIAN_POINT('',(15.500000023657,-8.853588742996,
    29.318182273836));
#697 = CARTESIAN_POINT('',(15.5,4.14117703601E-08,29.999999566355));
#698 = CARTESIAN_POINT('',(15.499999999998,8.853588700752,
    30.681818168431));
#699 = CARTESIAN_POINT('',(9.938329939479,17.706904167827,
    31.363637421145));
#700 = CARTESIAN_POINT('',(-1.196558377726,22.67896673586,32.04544790523
    ));
#701 = CARTESIAN_POINT('',(-14.79950251262,19.871821764181,
    32.727287751968));
#702 = CARTESIAN_POINT('',(-24.94225800345,8.195714311378,33.40906796389
    ));
#703 = CARTESIAN_POINT('',(-24.94225798132,-8.195714378052,
    34.090931602387));
#704 = CARTESIAN_POINT('',(-14.79950245971,-19.87182180363,
    34.77271181464));
#705 = CARTESIAN_POINT('',(-1.196558317036,-22.67896673912,
    35.454551660883));
#706 = CARTESIAN_POINT('',(9.938329986746,-17.70690414124,
    36.136362145424));
#707 = CARTESIAN_POINT('',(15.50000002366,-8.853588659347,
    36.818181397833));
#708 = CARTESIAN_POINT('',(15.5,-4.108491324928E-12,37.500000000064));
#709 = CARTESIAN_POINT('',(15.500000000002,8.853588788173,
    38.181817252943));
#710 = CARTESIAN_POINT('',(9.93832993947,17.706904015323,38.863639018139
    ));
#711 = CARTESIAN_POINT('',(-1.196558377721,22.678966962447,
    39.545445532582));
#712 = CARTESIAN_POINT('',(-14.79950251259,19.871821471975,
    40.227290811672));
#713 = CARTESIAN_POINT('',(-24.94225800352,8.195714642254,
    40.909064499022));
#714 = CARTESIAN_POINT('',(-24.94225798124,-8.195714708892,
    41.590935067308));
#715 = CARTESIAN_POINT('',(-14.79950245975,-19.87182151149,
    42.272708754801));
#716 = CARTESIAN_POINT('',(-1.196558317027,-22.67896696568,
    42.954554033695));
#717 = CARTESIAN_POINT('',(9.938329986746,-17.70690398873,
    43.636360548288));
#718 = CARTESIAN_POINT('',(15.500000023659,-8.853588746779,
    44.318182313417));
#719 = CARTESIAN_POINT('',(15.5,4.141742618313E-08,44.999999566304));
#720 = CARTESIAN_POINT('',(15.499999999997,8.85358870075,45.681818168447
    ));
#721 = CARTESIAN_POINT('',(9.93832993948,17.706904167812,46.363637421271
    ));
#722 = CARTESIAN_POINT('',(-1.196558377715,22.678966735906,
    47.045447904835));
#723 = CARTESIAN_POINT('',(-14.79950251265,19.871821764082,
    47.727287752717));
#724 = CARTESIAN_POINT('',(-24.94225800341,8.195714311544,
    48.409067962813));
#725 = CARTESIAN_POINT('',(-24.94225798134,-8.195714378261,
    49.090931603643));
#726 = CARTESIAN_POINT('',(-14.79950245972,-19.87182180345,
    49.772711813427));
#727 = CARTESIAN_POINT('',(-1.196558317021,-22.67896673925,
    50.454551661855));
#728 = CARTESIAN_POINT('',(9.93832998674,-17.70690414117,51.136362144787
    ));
#729 = CARTESIAN_POINT('',(15.500000023659,-8.853588659377,
    51.818181398166));
#730 = CARTESIAN_POINT('',(15.500000000001,5.866293562029E-12,
    52.499999999932));
#731 = CARTESIAN_POINT('',(15.499999999999,8.853588788137,
    53.181817253447));
#732 = CARTESIAN_POINT('',(9.938329939472,17.706904015413,
    53.863639016926));
#733 = CARTESIAN_POINT('',(-1.196558377698,22.678966962262,
    54.545445534748));
#734 = CARTESIAN_POINT('',(-14.7995025127,19.871821472291,
    55.227290808619));
#735 = CARTESIAN_POINT('',(-24.94225800329,8.195714641821,
    55.909064502531));
#736 = CARTESIAN_POINT('',(-24.94225798155,-8.195714708417,
    56.590935063949));
#737 = CARTESIAN_POINT('',(-14.79950245948,-19.8718215119,
    57.272708757504));
#738 = CARTESIAN_POINT('',(-1.196558317186,-22.67896696539,
    57.954554031876));
#739 = CARTESIAN_POINT('',(9.938329986809,-17.70690398889,
    58.636360549292));
#740 = CARTESIAN_POINT('',(15.500000023646,-8.853588746719,
    59.31818231298));
#741 = CARTESIAN_POINT('',(15.5,4.140170774269E-08,59.999999566442));
#742 = DEFINITIONAL_REPRESENTATION('',(#743),#746);
#743 = B_SPLINE_CURVE_WITH_KNOTS('',1,(#744,#745),.UNSPECIFIED.,.F.,.F.,
  (2,2),(0.,78.272720194707),.PIECEWISE_BEZIER_KNOTS.);
#744 = CARTESIAN_POINT('',(6.28318530718,0.));
#745 = CARTESIAN_POINT('',(6.28318530718,78.272720194707));
#746 = ( GEOMETRIC_REPRESENTATION_CONTEXT(2) 
PARAMETRIC_REPRESENTATION_CONTEXT() REPRESENTATION_CONTEXT('2D SPACE',''
  ) );
#747 = PCURVE('',#118,#748);
#748 = DEFINITIONAL_REPRESENTATION('',(#749),#753);
#749 = LINE('',#750,#751);
#750 = CARTESIAN_POINT('',(0.,0.));
#751 = VECTOR('',#752,1.);
#752 = DIRECTION('',(0.,1.));
#753 = ( GEOMETRIC_REPRESENTATION_CONTEXT(2) 
PARAMETRIC_REPRESENTATION_CONTEXT() REPRESENTATION_CONTEXT('2D SPACE',''
  ) );
#754 = ORIENTED_EDGE('',*,*,#755,.F.);
#755 = EDGE_CURVE('',#24,#24,#756,.T.);
#756 = SURFACE_CURVE('',#757,(#765,#772),.PCURVE_S1.);
#757 = ( BOUNDED_CURVE() B_SPLINE_CURVE(6,(#758,#759,#760,#761,#762,#763
,#764),.UNSPECIFIED.,.T.,.F.) B_SPLINE_CURVE_WITH_KNOTS((1,6,6,1),(
    -6.28318530718,0.,6.28318530718,12.566370614359),.UNSPECIFIED.) 
CURVE() GEOMETRIC_REPRESENTATION_ITEM() RATIONAL_B_SPLINE_CURVE((
    1.669078461068,1.03672962321,1.038346699848,0.853534330196,
1.038346699848,1.03672962321,1.669078461068)) REPRESENTATION_ITEM('') );
#758 = CARTESIAN_POINT('',(15.5,4.140170774269E-08,59.999999566442));
#759 = CARTESIAN_POINT('',(15.500000720375,4.141070131247E-08,
    64.984628793155));
#760 = CARTESIAN_POINT('',(9.336356252165,-4.36496351286E-08,
    65.700337606945));
#761 = CARTESIAN_POINT('',(4.252649236975,-1.138177744692E-07,
    60.000001191902));
#762 = CARTESIAN_POINT('',(9.336354604547,-4.367017221452E-08,
    54.299663307471));
#763 = CARTESIAN_POINT('',(15.499999279625,4.139274395465E-08,
    55.015370339729));
#764 = CARTESIAN_POINT('',(15.5,4.140170774269E-08,59.999999566442));
#765 = PCURVE('',#118,#766);
#766 = DEFINITIONAL_REPRESENTATION('',(#767),#771);
#767 = LINE('',#768,#769);
#768 = CARTESIAN_POINT('',(0.,78.272720194707));
#769 = VECTOR('',#770,1.);
#770 = DIRECTION('',(1.,0.));
#771 = ( GEOMETRIC_REPRESENTATION_CONTEXT(2) 
PARAMETRIC_REPRESENTATION_CONTEXT() REPRESENTATION_CONTEXT('2D SPACE',''
  ) );
#772 = PCURVE('',#773,#778);
#773 = PLANE('',#774);
#774 = AXIS2_PLACEMENT_3D('',#775,#776,#777);
#775 = CARTESIAN_POINT('',(12.500475269705,6.657254556757E-12,
    59.999999999931));
#776 = DIRECTION('',(1.380053737914E-08,-1.,1.7993316611E-12));
#777 = DIRECTION('',(-1.,-1.380053737914E-08,0.));
#778 = DEFINITIONAL_REPRESENTATION('',(#779),#787);
#779 = ( BOUNDED_CURVE() B_SPLINE_CURVE(6,(#780,#781,#782,#783,#784,#785
,#786),.UNSPECIFIED.,.T.,.F.) B_SPLINE_CURVE_WITH_KNOTS((1,6,6,1),(
    -6.28318530718,0.,6.28318530718,12.566370614359),.UNSPECIFIED.) 
CURVE() GEOMETRIC_REPRESENTATION_ITEM() RATIONAL_B_SPLINE_CURVE((
    1.669078461068,1.03672962321,1.038346699848,0.853534330196,
1.038346699848,1.03672962321,1.669078461068)) REPRESENTATION_ITEM('') );
#780 = CARTESIAN_POINT('',(-2.999524730295,4.334893759506E-07));
#781 = CARTESIAN_POINT('',(-2.999525450671,-4.984628793224));
#782 = CARTESIAN_POINT('',(3.16411901754,-5.700337607013));
#783 = CARTESIAN_POINT('',(8.24782603273,-1.191970511627E-06));
#784 = CARTESIAN_POINT('',(3.164120665158,5.70033669246));
#785 = CARTESIAN_POINT('',(-2.99952400992,4.984629660202));
#786 = CARTESIAN_POINT('',(-2.999524730295,4.334893759506E-07));
#787 = ( GEOMETRIC_REPRESENTATION_CONTEXT(2) 
PARAMETRIC_REPRESENTATION_CONTEXT() REPRESENTATION_CONTEXT('2D SPACE',''
  ) );
#788 = ORIENTED_EDGE('',*,*,#21,.F.);
#789 = ORIENTED_EDGE('',*,*,#790,.T.);
#790 = EDGE_CURVE('',#22,#22,#791,.T.);
#791 = SURFACE_CURVE('',#792,(#800,#807),.PCURVE_S1.);
#792 = ( BOUNDED_CURVE() B_SPLINE_CURVE(6,(#793,#794,#795,#796,#797,#798
,#799),.UNSPECIFIED.,.T.,.F.) B_SPLINE_CURVE_WITH_KNOTS((1,6,6,1),(
    -6.28318530718,0.,6.28318530718,12.566370614359),.UNSPECIFIED.) 
CURVE() GEOMETRIC_REPRESENTATION_ITEM() RATIONAL_B_SPLINE_CURVE((
    1.669078461068,1.03672962321,1.038346699848,0.853534330196,
1.038346699848,1.03672962321,1.669078461068)) REPRESENTATION_ITEM('') );
#793 = CARTESIAN_POINT('',(15.5,-1.880440247959E-14,0.));
#794 = CARTESIAN_POINT('',(15.5,-1.904032487232E-14,4.984629226713));
#795 = CARTESIAN_POINT('',(9.336355428356,-1.300348717592E-14,
    5.700337149737));
#796 = CARTESIAN_POINT('',(4.252649236975,-4.371503159462E-15,
    1.06581410364E-14));
#797 = CARTESIAN_POINT('',(9.336355428356,-1.307287611496E-14,
    -5.700337149737));
#798 = CARTESIAN_POINT('',(15.5,-2.008115895791E-14,-4.984629226713));
#799 = CARTESIAN_POINT('',(15.5,-1.880440247959E-14,0.));
#800 = PCURVE('',#118,#801);
#801 = DEFINITIONAL_REPRESENTATION('',(#802),#806);
#802 = LINE('',#803,#804);
#803 = CARTESIAN_POINT('',(0.,0.));
#804 = VECTOR('',#805,1.);
#805 = DIRECTION('',(1.,0.));
#806 = ( GEOMETRIC_REPRESENTATION_CONTEXT(2) 
PARAMETRIC_REPRESENTATION_CONTEXT() REPRESENTATION_CONTEXT('2D SPACE',''
  ) );
#807 = PCURVE('',#808,#813);
#808 = PLANE('',#809);
#809 = AXIS2_PLACEMENT_3D('',#810,#811,#812);
#810 = CARTESIAN_POINT('',(12.500475269705,-1.572319830544E-14,
    -1.036208511176E-15));
#811 = DIRECTION('',(-1.101475992866E-15,-1.,-0.));
#812 = DIRECTION('',(-1.,1.101475992866E-15,0.));
#813 = DEFINITIONAL_REPRESENTATION('',(#814),#822);
#814 = ( BOUNDED_CURVE() B_SPLINE_CURVE(6,(#815,#816,#817,#818,#819,#820
,#821),.UNSPECIFIED.,.T.,.F.) B_SPLINE_CURVE_WITH_KNOTS((1,6,6,1),(
    -6.28318530718,0.,6.28318530718,12.566370614359),.UNSPECIFIED.) 
CURVE() GEOMETRIC_REPRESENTATION_ITEM() RATIONAL_B_SPLINE_CURVE((
    1.669078461068,1.03672962321,1.038346699848,0.853534330196,
1.038346699848,1.03672962321,1.669078461068)) REPRESENTATION_ITEM('') );
#815 = CARTESIAN_POINT('',(-2.999524730295,-1.036208511176E-15));
#816 = CARTESIAN_POINT('',(-2.999524730295,-4.984629226713));
#817 = CARTESIAN_POINT('',(3.164119841349,-5.700337149737));
#818 = CARTESIAN_POINT('',(8.24782603273,-1.169434954758E-14));
#819 = CARTESIAN_POINT('',(3.164119841349,5.700337149737));
#820 = CARTESIAN_POINT('',(-2.999524730295,4.984629226713));
#821 = CARTESIAN_POINT('',(-2.999524730295,-1.036208511176E-15));
#822 = ( GEOMETRIC_REPRESENTATION_CONTEXT(2) 
PARAMETRIC_REPRESENTATION_CONTEXT() REPRESENTATION_CONTEXT('2D SPACE',''
  ) );
#823 = ADVANCED_FACE('',(#824),#808,.T.);
#824 = FACE_BOUND('',#825,.T.);
#825 = EDGE_LOOP('',(#826));
#826 = ORIENTED_EDGE('',*,*,#790,.T.);
#827 = ADVANCED_FACE('',(#828),#773,.F.);
#828 = FACE_BOUND('',#829,.F.);
#829 = EDGE_LOOP('',(#830));
#830 = ORIENTED_EDGE('',*,*,#755,.T.);
#831 = ( GEOMETRIC_REPRESENTATION_CONTEXT(3) 
GLOBAL_UNCERTAINTY_ASSIGNED_CONTEXT((#835)) GLOBAL_UNIT_ASSIGNED_CONTEXT
((#832,#833,#834)) REPRESENTATION_CONTEXT('Context #1',
  '3D Context with UNIT and UNCERTAINTY') );
#832 = ( LENGTH_UNIT() NAMED_UNIT(*) SI_UNIT(.MILLI.,.METRE.) );
#833 = ( NAMED_UNIT(*) PLANE_ANGLE_UNIT() SI_UNIT($,.RADIAN.) );
#834 = ( NAMED_UNIT(*) SI_UNIT($,.STERADIAN.) SOLID_ANGLE_UNIT() );
#835 = UNCERTAINTY_MEASURE_WITH_UNIT(LENGTH_MEASURE(2.E-05),#832,
  'distance_accuracy_value','confusion accuracy');
#836 = PRODUCT_RELATED_PRODUCT_CATEGORY('part',$,(#7));
ENDSEC;
END-ISO-10303-21;
